<svg width="276" height="96" viewBox="0 0 276 96" fill="none" xmlns="http://www.w3.org/2000/svg">
<mask id="mask0_120_4" style="mask-type:luminance" maskUnits="userSpaceOnUse" x="206" y="1" width="70" height="65">
<path d="M206.021 1.0365H276V65.0365H206.021V1.0365Z" fill="white"/>
</mask>
<g mask="url(#mask0_120_4)">
<path d="M275.87 22.2917L275.562 21.5938L275.057 21.4896L272.62 23.7344L270.943 23.6823L269.672 25.3125C269.672 25.3125 268.198 27.1927 265.505 27.9635C262.818 28.724 262.052 27.7552 261.896 26.8438C261.734 25.9271 263.427 25.4688 263.427 25.4688C263.427 25.4688 261.953 25.2135 261.089 24.8021C260.229 24.3958 260.073 22.5156 260.125 21.5417C260.177 20.5781 259.26 18.1823 259.26 18.1823L257.182 20.4219L248.599 16.401L255.349 22.6615L252.51 25.7188L245.552 19.4062L250.724 27.8073L247.839 30.9688L238.901 15.7396L233.365 21.5938L225.036 14.0573L230.62 7.94792L216.099 1.17188C216.099 1.17188 215.083 2.54687 214.172 2.59896C213.26 2.65104 212.953 2.75 212.443 3.71875C211.938 4.6875 212.141 5.95833 212.292 7.74479C212.443 9.52604 212.292 10.4948 211.583 12.0729C210.875 13.651 211.635 14.8802 211.635 14.8802L207.979 18.9948H207.219V19.9635L210.672 24.0885L211.432 23.4792C211.432 23.4792 212.146 24.2396 213.62 24.2396C215.094 24.2396 215.245 24.2396 216.969 26.5677C218.698 28.8906 222.964 28.0469 222.964 28.0469C222.964 28.0469 225.146 28.3646 226.214 28.5677C227.281 28.7708 229.104 30.3542 231.391 32.0833C233.677 33.8125 234.844 35.2396 235.047 36.1562C235.255 37.0729 236.115 40.3854 235.349 41.8385C234.589 43.2917 235.036 43.5521 235.036 43.5521L235.552 45.8333C235.552 45.8333 237.125 47.6615 237.938 48.1198C238.755 48.5781 238.349 49.4844 238.349 49.4844C237.328 50.6458 236.823 53.026 236.823 53.026L237.583 54.0312L238.755 56.7812L239.823 57.5417C240.734 57.4427 241.547 58.5625 241.547 58.5625L242.182 61.8698L244.542 61.4635L245.25 61.9688C245.25 61.9688 245.354 62.9375 245.99 63.5C246.625 64.0573 248.25 64.3646 249.161 63.8021C250.073 63.2448 251.344 62.4792 252.312 62.4792C253.276 62.4792 255.714 62.1771 255.714 62.1771L256.88 62.9896C256.88 62.9896 257.135 63.0417 259.115 62.5312C261.099 62.0208 265.667 60.3906 265.667 60.3906L266.734 59.375L267.089 58.4583L267.75 57.7448H268.969L270.594 55.8646L269.479 54.4896C269.479 54.4896 270.344 54.0313 269.63 53.5C268.917 52.974 268.87 52.1458 268.87 52.1458C268.87 52.1458 270.797 50.2135 270.953 49.4792C271.104 48.7396 271 46.6979 271 46.6979C271.812 44.6615 271.458 44.0469 271.052 43.5521C270.646 43.0521 270.495 42.5729 270.495 41.401C270.495 40.2292 270.698 36.0573 270.698 36.0573L271.865 34.375L272.224 33.349C272.224 33.349 273.188 32.0313 273.495 31.4219C273.797 30.8073 272.781 29.7917 272.224 28.974C271.661 28.1615 271.714 28.0052 271.714 28.0052L274 25.7656L273.797 25.0677L275.573 23.2188L275.875 22.2917H275.87Z" fill="#212B60"/>
</g>
<path d="M260.245 17.2449L261.057 18.1303L261.193 19.8074L261.896 18.5365L262.464 17.0105L265.458 14.7865L262.464 14.1928L260.448 12.224L259.974 11.0678L258.755 10.1147L259.26 8.96362L257.875 8.07821L256.318 7.43758L255.344 6.65633L254.859 5.83862L253.406 7.43758L252.12 8.34904L249.208 8.55737L248.125 8.07821L247.229 7.13029L244.266 10.0522L259.26 17.2449H260.245Z" fill="#212B60"/>
<path d="M15.8545 56.4062H13.0576C14.7139 71.5625 26.1045 83.6823 40.5316 85.7656V82.9427C27.6357 80.8906 17.4743 70.0156 15.8545 56.4062ZM13.3649 46.5781H16.193C18.5837 34 28.3389 24.1667 40.5316 22.2292V19.4062C26.8076 21.3906 15.8232 32.4583 13.3649 46.5781ZM74.0524 56.4062C72.4587 69.7969 62.5941 80.5417 49.9951 82.8333V85.6667C64.1253 83.3333 75.2191 71.3438 76.8545 56.4062H74.0524ZM73.7139 46.5781H76.542C74.1357 32.7865 63.6149 21.9167 50.3493 19.5625V22.401C62.0889 24.6979 71.3857 34.3385 73.7087 46.5781H73.7139Z" fill="black"/>
<path d="M20.4897 56.4063H17.6772C19.4168 68.6459 28.7554 78.3438 40.5366 80.1511V77.323C30.2866 75.5573 22.1772 67.0938 20.495 56.4011L20.4897 56.4063ZM17.9429 46.5782H20.7866C22.9741 36.6302 30.7866 28.8959 40.5314 27.2188V24.3959C29.2554 26.1198 20.2241 35.0834 17.9429 46.5782ZM68.5262 56.4063C66.9272 66.5677 59.5262 74.7136 50.0002 77.0157V79.875C61.0575 77.5052 69.6772 68.1198 71.3387 56.4063H68.5262ZM68.2293 46.5782H71.0731C68.922 35.724 60.7502 27.1302 50.3543 24.75V27.6198C59.2189 29.9063 66.1825 37.2709 68.2293 46.573V46.5782Z" fill="#FF9900"/>
<path d="M97.2555 31.1562C97.2555 32.0885 97.0628 32.8906 96.6826 33.5625C96.2972 34.2344 95.7712 34.776 95.0941 35.1979C94.4014 35.6354 93.6045 35.9479 92.7087 36.1406C91.8128 36.3385 90.8076 36.4323 89.693 36.4323H88.3493V41.0781C88.3493 41.3594 88.4014 41.599 88.5055 41.8073C88.6097 42.0156 88.8076 42.1771 89.1045 42.3021C89.2555 42.3646 89.5107 42.4323 89.8597 42.5C90.2087 42.5677 90.5003 42.6146 90.7399 42.6406V43.5521H81.8076V42.6406C82.0316 42.6146 82.3337 42.5833 82.6982 42.5417C83.0732 42.5 83.3337 42.4479 83.4795 42.3854C83.7816 42.2604 83.9795 42.1094 84.0785 41.9323C84.1722 41.7552 84.2243 41.5052 84.2243 41.1823V29.5208C84.2243 29.25 84.1774 29.0156 84.0837 28.8177C83.9899 28.6198 83.7868 28.4531 83.4795 28.3229C83.2607 28.2292 82.9743 28.1458 82.6149 28.0729C82.2555 28 81.9847 27.9479 81.8076 27.9271V27.0156H90.9014C93.0316 27.0156 94.6253 27.3542 95.6774 28.0365C96.7295 28.7135 97.2555 29.7552 97.2555 31.151V31.1562ZM92.7243 31.75C92.7243 30.5052 92.4795 29.5833 91.9743 28.9844C91.4743 28.3802 90.5889 28.0781 89.3128 28.0781H88.3493V35.3385H88.8337C90.1045 35.3385 91.068 35.0469 91.7347 34.4583C92.3962 33.875 92.7243 32.9688 92.7243 31.75Z" fill="#FF9900"/>
<path d="M113.099 31.2396H112.219C111.995 30.6146 111.61 29.9792 111.057 29.3385C110.511 28.6927 109.964 28.3125 109.422 28.1979C109.188 28.1458 108.865 28.1146 108.448 28.1042C108.037 28.0885 107.693 28.0833 107.422 28.0833H105.031V34.4583H106.729C107.156 34.4583 107.542 34.4062 107.891 34.3021C108.24 34.2031 108.557 34.0104 108.844 33.724C109.021 33.5417 109.198 33.2292 109.386 32.776C109.568 32.3281 109.682 31.9323 109.74 31.599H110.62V38.5H109.74C109.693 38.1719 109.573 37.7656 109.386 37.2708C109.193 36.776 109.016 36.4375 108.844 36.25C108.589 35.974 108.287 35.7813 107.938 35.6719C107.583 35.5677 107.182 35.5156 106.729 35.5156H105.031V40.2812C105.031 40.776 105.068 41.1719 105.141 41.4635C105.214 41.7552 105.354 41.9792 105.552 42.1302C105.75 42.276 106.011 42.375 106.349 42.4219C106.688 42.4688 107.146 42.4896 107.724 42.4896C108 42.4896 108.323 42.4896 108.703 42.4792C109.083 42.4688 109.417 42.4479 109.703 42.4115C110.026 42.3698 110.328 42.3125 110.615 42.2344C110.896 42.1562 111.104 42.0469 111.245 41.8958C111.62 41.5156 112.037 40.9323 112.5 40.1562C112.964 39.375 113.271 38.7865 113.417 38.401H114.266L113.953 43.5521H98.4897V42.6406C98.7085 42.625 99.0054 42.5938 99.37 42.5469C99.745 42.5 100.005 42.4479 100.162 42.3854C100.458 42.2604 100.656 42.1042 100.755 41.9115C100.854 41.724 100.906 41.4792 100.906 41.1823V29.5208C100.906 29.2448 100.865 29.0104 100.776 28.8281C100.693 28.6458 100.49 28.4792 100.162 28.3333C99.9637 28.2448 99.6772 28.1563 99.3127 28.0781C98.9533 28 98.6772 27.9479 98.4897 27.9271V27.0156H113.104V31.2344L113.099 31.2396Z" fill="#FF9900"/>
<path d="M122.558 44.0052C121.552 44.0052 120.61 43.8802 119.74 43.625C118.87 43.375 118.131 43.0781 117.526 42.7344L116.729 43.5521H115.74L115.589 37.5729H116.589C116.813 38.1406 117.099 38.7396 117.448 39.3698C117.797 40 118.198 40.5625 118.651 41.0625C119.125 41.5885 119.657 42.0104 120.24 42.3333C120.823 42.6615 121.506 42.8281 122.287 42.8281C123.344 42.8281 124.151 42.5677 124.709 42.0521C125.271 41.5365 125.552 40.8854 125.552 40.099C125.552 39.4531 125.313 38.9115 124.834 38.474C124.36 38.0313 123.62 37.6563 122.625 37.3333C121.974 37.125 121.375 36.9271 120.828 36.7448C120.282 36.5677 119.771 36.3854 119.287 36.1979C118.183 35.7552 117.36 35.1198 116.823 34.2969C116.282 33.474 116.016 32.5521 116.016 31.5312C116.016 30.8854 116.157 30.2656 116.433 29.6719C116.709 29.0781 117.115 28.5417 117.651 28.0677C118.162 27.625 118.818 27.2656 119.615 26.9844C120.412 26.7031 121.282 26.5625 122.219 26.5625C123.151 26.5625 123.985 26.6927 124.782 26.9479C125.584 27.2031 126.209 27.4635 126.667 27.7188L127.375 27.0156H128.386L128.479 32.6562H127.479C127.25 32.0469 126.974 31.4271 126.662 30.7917C126.349 30.1563 126.016 29.6302 125.667 29.2083C125.287 28.7604 124.849 28.3958 124.354 28.1302C123.86 27.8594 123.276 27.7292 122.61 27.7292C121.776 27.7292 121.094 27.9687 120.563 28.4427C120.032 28.9115 119.766 29.5 119.766 30.2031C119.766 30.8646 119.995 31.4062 120.459 31.8229C120.917 32.2448 121.636 32.6146 122.61 32.9323C123.183 33.1302 123.771 33.3177 124.365 33.5156C124.964 33.7083 125.495 33.8958 125.959 34.0729C127.078 34.5104 127.938 35.1094 128.521 35.875C129.104 36.6458 129.396 37.5938 129.396 38.7292C129.396 39.4427 129.229 40.1354 128.896 40.8073C128.563 41.4792 128.115 42.0365 127.547 42.474C126.927 42.9688 126.209 43.3438 125.396 43.6094C124.584 43.8698 123.636 44.0052 122.552 44.0052H122.558Z" fill="#FF9900"/>
<path d="M146.407 31.75H145.5C145.261 31.0417 144.875 30.2865 144.344 29.4792C143.818 28.6719 143.328 28.2344 142.881 28.1719C142.636 28.1407 142.328 28.1146 141.964 28.0938C141.599 28.0677 141.292 28.0573 141.026 28.0573H140.485V41.0261C140.485 41.3021 140.532 41.5469 140.636 41.7657C140.735 41.9792 140.933 42.1459 141.224 42.2709C141.401 42.3438 141.683 42.4115 142.058 42.4896C142.433 42.5625 142.75 42.6146 143.016 42.6459V43.5573H133.823V42.6459C134.047 42.625 134.365 42.5886 134.771 42.5469C135.177 42.5052 135.459 42.4532 135.604 42.3907C135.907 42.2657 136.104 42.099 136.209 41.8855C136.308 41.6771 136.36 41.4271 136.36 41.1407V28.0573H135.813C135.552 28.0573 135.24 28.0677 134.875 28.0938C134.511 28.1146 134.209 28.1459 133.959 28.1719C133.511 28.2344 133.026 28.6719 132.495 29.4792C131.964 30.2865 131.584 31.0417 131.339 31.75H130.433V27.0209H146.407V31.75Z" fill="#FF9900"/>
<path d="M156.433 43.5521H147.292V42.6407C147.5 42.6302 147.808 42.6042 148.214 42.573C148.62 42.5417 148.901 42.4948 149.058 42.4323C149.344 42.3177 149.537 42.1615 149.646 41.974C149.75 41.7865 149.802 41.5417 149.802 41.2448V29.5261C149.802 29.2605 149.75 29.0313 149.651 28.823C149.547 28.625 149.349 28.4584 149.058 28.3386C148.87 28.2605 148.594 28.1771 148.235 28.099C147.87 28.0209 147.552 27.9636 147.292 27.9271V27.0209H156.433V27.9271C156.198 27.9532 155.907 27.9844 155.563 28.0313C155.214 28.073 154.917 28.1355 154.683 28.2084C154.375 28.3125 154.177 28.4688 154.078 28.6823C153.974 28.8959 153.927 29.1355 153.927 29.4115V41.1198C153.927 41.3959 153.974 41.6407 154.084 41.8386C154.188 42.0365 154.386 42.1927 154.683 42.3177C154.844 42.3855 155.115 42.4584 155.49 42.5209C155.865 42.5886 156.183 42.6302 156.438 42.6459V43.5573L156.433 43.5521Z" fill="#FF9900"/>
<path d="M180.615 43.5521H171.682V42.6407C171.948 42.6198 172.271 42.5782 172.656 42.5261C173.037 42.4688 173.297 42.4115 173.438 42.349C173.724 42.2344 173.932 42.073 174.052 41.875C174.177 41.6719 174.24 41.4167 174.24 41.1042V28.7552L168.568 43.2813H167.11C167.037 43.0261 166.865 42.5157 166.589 41.7552C166.313 40.9948 166.094 40.3855 165.922 39.9271L161.755 28.5677V38.625C161.755 39.5886 161.818 40.323 161.943 40.8177C162.073 41.323 162.281 41.6875 162.568 41.9219C162.761 42.0834 163.104 42.2396 163.604 42.3855C164.104 42.5313 164.453 42.6198 164.656 42.6407V43.5521H157.568V42.6407C157.761 42.6198 158.078 42.5677 158.516 42.4844C158.953 42.4011 159.313 42.2605 159.589 42.0625C159.896 41.8438 160.11 41.474 160.214 40.9584C160.323 40.4427 160.38 39.7084 160.38 38.75V30.5625C160.38 30.0625 160.318 29.6511 160.193 29.323C160.068 28.9896 159.886 28.7292 159.636 28.5365C159.328 28.2917 159.011 28.1407 158.682 28.0677C158.354 28 158.026 27.9532 157.693 27.9271V27.0209H165.292L169.354 37.9115L172.781 29.073C172.896 28.7448 173.011 28.3594 173.12 27.9063C173.224 27.4584 173.281 27.1615 173.292 27.0209H180.594V27.9271C180.344 27.9427 180.089 27.974 179.813 28.0209C179.542 28.0678 179.287 28.1302 179.037 28.2084C178.735 28.3073 178.537 28.4688 178.438 28.6823C178.339 28.9011 178.292 29.1459 178.292 29.4063V41.1146C178.292 41.3959 178.339 41.6302 178.438 41.823C178.537 42.0105 178.735 42.1771 179.037 42.3177C179.193 42.3855 179.448 42.448 179.797 42.5157C180.151 42.5782 180.422 42.6198 180.615 42.6407V43.5521Z" fill="#FF9900"/>
<path d="M196.927 31.2396H196.047C195.823 30.6146 195.432 29.9792 194.886 29.3385C194.333 28.6927 193.787 28.3125 193.245 28.1979C193.016 28.1458 192.693 28.1146 192.276 28.1042C191.86 28.0885 191.521 28.0833 191.25 28.0833H188.854V34.4583H190.552C190.979 34.4583 191.365 34.4062 191.714 34.3021C192.063 34.2031 192.38 34.0104 192.667 33.724C192.844 33.5417 193.026 33.2292 193.208 32.776C193.391 32.3281 193.511 31.9323 193.563 31.599H194.448V38.5H193.563C193.521 38.1719 193.396 37.7656 193.208 37.2708C193.021 36.776 192.839 36.4375 192.667 36.25C192.412 35.974 192.11 35.7813 191.761 35.6719C191.412 35.5677 191.011 35.5156 190.552 35.5156H188.854V40.2812C188.854 40.776 188.896 41.1719 188.969 41.4635C189.042 41.7552 189.177 41.9792 189.38 42.1302C189.573 42.276 189.839 42.375 190.177 42.4219C190.516 42.4688 190.969 42.4896 191.552 42.4896C191.823 42.4896 192.146 42.4896 192.526 42.4792C192.906 42.4688 193.24 42.4479 193.526 42.4115C193.854 42.3698 194.156 42.3125 194.438 42.2344C194.724 42.1562 194.932 42.0469 195.073 41.8958C195.443 41.5156 195.865 40.9323 196.328 40.1562C196.792 39.375 197.094 38.7865 197.245 38.401H198.094L197.776 43.5521H182.318V42.6406C182.537 42.625 182.828 42.5938 183.198 42.5469C183.568 42.5 183.833 42.4479 183.99 42.3854C184.281 42.2604 184.479 42.1042 184.578 41.9115C184.682 41.724 184.735 41.4792 184.735 41.1823V29.5208C184.735 29.2448 184.688 29.0104 184.604 28.8281C184.516 28.6458 184.313 28.4792 183.99 28.3333C183.787 28.2448 183.505 28.1563 183.141 28.0781C182.776 28 182.5 27.9479 182.318 27.9271V27.0156H196.932V31.2344L196.927 31.2396Z" fill="#FF9900"/>
<path d="M206.386 44.0052C205.375 44.0052 204.438 43.8802 203.568 43.625C202.698 43.375 201.959 43.0781 201.354 42.7344L200.552 43.5521H199.568L199.417 37.5729H200.412C200.636 38.1406 200.927 38.7396 201.271 39.3698C201.62 40 202.021 40.5625 202.479 41.0625C202.953 41.5885 203.479 42.0104 204.063 42.3333C204.651 42.6615 205.334 42.8281 206.115 42.8281C207.167 42.8281 207.974 42.5677 208.537 42.0521C209.099 41.5365 209.375 40.8854 209.375 40.099C209.375 39.4531 209.141 38.9115 208.662 38.474C208.183 38.0313 207.448 37.6563 206.448 37.3333C205.797 37.125 205.203 36.9271 204.657 36.7448C204.11 36.5677 203.594 36.3854 203.115 36.1979C202.006 35.7552 201.188 35.1198 200.646 34.2969C200.11 33.474 199.839 32.5521 199.839 31.5312C199.839 30.8854 199.979 30.2656 200.261 29.6719C200.537 29.0781 200.948 28.5417 201.479 28.0677C201.99 27.625 202.641 27.2656 203.443 26.9844C204.24 26.7031 205.104 26.5625 206.042 26.5625C206.979 26.5625 207.813 26.6927 208.61 26.9479C209.407 27.2031 210.037 27.4635 210.495 27.7188L211.203 27.0156H212.214L212.308 32.6562H211.308C211.073 32.0469 210.797 31.4271 210.49 30.7917C210.172 30.1563 209.844 29.6302 209.495 29.2083C209.115 28.7604 208.677 28.3958 208.183 28.1302C207.688 27.8594 207.104 27.7292 206.438 27.7292C205.604 27.7292 204.917 27.9687 204.391 28.4427C203.86 28.9115 203.594 29.5 203.594 30.2031C203.594 30.8646 203.823 31.4062 204.282 31.8229C204.745 32.2448 205.464 32.6146 206.438 32.9323C207.011 33.1302 207.594 33.3177 208.193 33.5156C208.787 33.7083 209.318 33.8958 209.782 34.0729C210.907 34.5104 211.761 35.1094 212.344 35.875C212.927 36.6458 213.219 37.5938 213.219 38.7292C213.219 39.4427 213.052 40.1354 212.719 40.8073C212.386 41.4792 211.938 42.0365 211.37 42.474C210.756 42.9688 210.037 43.3438 209.224 43.6094C208.412 43.8698 207.459 44.0052 206.375 44.0052H206.386Z" fill="#FF9900"/>
<path d="M235.031 43.5521H226.12V42.6407C226.313 42.6302 226.594 42.6042 226.969 42.573C227.339 42.5417 227.594 42.4948 227.735 42.4323C228.021 42.3178 228.219 42.1615 228.328 41.974C228.438 41.7865 228.49 41.5417 228.49 41.2448V35.5469H221.448V41.1146C221.448 41.3802 221.505 41.6198 221.62 41.8282C221.729 42.0365 221.922 42.2032 222.193 42.3178C222.339 42.3802 222.589 42.4428 222.948 42.5157C223.302 42.5834 223.594 42.625 223.818 42.6407V43.5521H214.912V42.6407C215.104 42.6355 215.386 42.6094 215.761 42.5678C216.136 42.5261 216.412 42.474 216.578 42.4115C216.86 42.3073 217.052 42.1563 217.162 41.9532C217.271 41.7448 217.323 41.5052 217.323 41.224V29.5261C217.323 29.2552 217.276 29.0209 217.177 28.8386C217.083 28.6511 216.886 28.4896 216.578 28.349C216.36 28.25 216.063 28.1615 215.698 28.0782C215.333 28 215.073 27.948 214.912 27.9323V27.0209H223.818V27.9323C223.578 27.948 223.292 27.9844 222.958 28.0521C222.63 28.1146 222.37 28.1719 222.193 28.224C221.891 28.3282 221.693 28.4844 221.594 28.7084C221.5 28.9271 221.448 29.1615 221.448 29.4115V34.3542H228.49V29.5313C228.49 29.2605 228.438 29.0313 228.339 28.8438C228.24 28.6563 228.037 28.4948 227.735 28.3594C227.531 28.2657 227.266 28.1771 226.927 28.0938C226.589 28.0157 226.318 27.9636 226.12 27.9375V27.0261H235.031V27.9375C234.781 27.9532 234.505 27.9844 234.193 28.0365C233.886 28.0886 233.604 28.1511 233.36 28.2292C233.063 28.3334 232.865 28.4896 232.766 28.7084C232.667 28.9271 232.615 29.1615 232.615 29.4167V41.125C232.615 41.4063 232.667 41.6459 232.766 41.8386C232.865 42.0365 233.063 42.198 233.36 42.3282C233.542 42.4063 233.813 42.474 234.167 42.5365C234.516 42.599 234.807 42.6355 235.031 42.6563V43.5625V43.5521Z" fill="#FF9900"/>
<path d="M90.6302 59.4949L89.9792 62.3178H89.724C89.6927 61.547 89.5052 60.974 89.1615 60.599C88.8125 60.224 88.3646 60.0313 87.8073 60.0313C87.2031 60.0313 86.6094 60.2917 86.0104 60.8074C85.4167 61.3178 84.9115 62.1042 84.5 63.1667C84.1615 64.0261 83.9948 64.8751 83.9948 65.7136C83.9948 66.4584 84.1823 67.0365 84.5469 67.4272C84.9167 67.823 85.4219 68.0209 86.0625 68.0209C86.5781 68.0209 87.0521 67.9063 87.474 67.6824C87.901 67.4532 88.3281 67.0886 88.7656 66.573H89.0781C88.5365 67.3855 87.9948 67.9584 87.4427 68.2813C86.8958 68.6095 86.2188 68.7761 85.4271 68.7761C84.3594 68.7761 83.5 68.448 82.8542 67.8022C82.2031 67.1563 81.875 66.3126 81.875 65.2709C81.875 64.2917 82.1354 63.3595 82.651 62.474C83.1719 61.5886 83.9115 60.8699 84.8854 60.323C85.8542 59.7709 86.8229 59.5001 87.7812 59.5001C88.151 59.5001 88.6042 59.5782 89.1458 59.7345C89.4219 59.8126 89.6198 59.8542 89.7292 59.8542C89.9427 59.8542 90.1667 59.7345 90.3854 59.5001H90.625L90.6302 59.4949Z" fill="black"/>
<path d="M94.3022 62.5104C94.646 62.5104 94.9689 62.5885 95.271 62.7448C95.5731 62.9063 95.8022 63.1302 95.9533 63.4115C96.1095 63.6927 96.1877 64.0052 96.1877 64.349C96.1877 65.0573 95.9897 65.7604 95.5991 66.4688C95.2033 67.1771 94.6825 67.7344 94.0418 68.1406C93.4012 68.5469 92.7502 68.75 92.0991 68.75C91.5054 68.75 91.0522 68.5729 90.7241 68.2188C90.4012 67.8646 90.2397 67.4375 90.2397 66.9271C90.2397 66.3177 90.3595 65.75 90.5991 65.2188C90.8387 64.6875 91.146 64.2292 91.521 63.8333C91.8908 63.4427 92.3179 63.1198 92.8022 62.875C93.2866 62.625 93.7814 62.5 94.3022 62.5V62.5104ZM94.0366 62.8542C93.8022 62.8542 93.6147 62.9219 93.4637 63.0573C93.1564 63.3333 92.8127 63.974 92.4325 64.9844C92.047 65.9948 91.8595 66.901 91.8595 67.7135C91.8595 67.9115 91.9168 68.0781 92.0418 68.2083C92.1668 68.3385 92.3075 68.401 92.4741 68.401C92.6356 68.401 92.7918 68.3542 92.922 68.2448C93.1147 68.0885 93.3491 67.7396 93.6252 67.1875C93.9012 66.6406 94.1304 66.0365 94.3075 65.3802C94.4845 64.7188 94.5731 64.1146 94.5731 63.5625C94.5731 63.3385 94.521 63.1615 94.4116 63.0365C94.3022 62.9167 94.1772 62.8542 94.0366 62.8542Z" fill="black"/>
<path d="M100.161 62.5104L99.349 65.3125C99.8906 64.4896 100.297 63.9323 100.568 63.6302C100.964 63.1927 101.302 62.8958 101.594 62.7396C101.88 62.5833 102.146 62.5052 102.401 62.5052C102.63 62.5052 102.823 62.5885 102.984 62.7552C103.146 62.9219 103.224 63.1458 103.224 63.4167C103.224 63.6615 103.172 63.9531 103.068 64.3073L102.229 67.099C102.161 67.3438 102.13 67.5 102.13 67.5729C102.13 67.6146 102.146 67.6562 102.177 67.6927C102.208 67.724 102.245 67.7448 102.276 67.7448C102.318 67.7448 102.365 67.724 102.417 67.6927C102.568 67.5677 102.719 67.3854 102.88 67.1562C102.917 67.0938 102.979 67.0052 103.068 66.8802L103.318 67.0312C102.677 68.1042 102.005 68.6458 101.302 68.6458C101.031 68.6458 100.818 68.5781 100.667 68.4375C100.516 68.2969 100.438 68.1198 100.438 67.9115C100.438 67.7292 100.49 67.4583 100.599 67.0938L101.411 64.3021C101.469 64.1198 101.5 63.9844 101.5 63.8958C101.5 63.849 101.479 63.8073 101.443 63.7708C101.406 63.7344 101.354 63.7188 101.302 63.7188C101.135 63.7188 100.938 63.8333 100.703 64.0573C100.104 64.6302 99.526 65.4896 98.9635 66.625L98.4271 68.5677H96.7656L97.9844 64.3698C98.099 63.9531 98.1615 63.6615 98.1615 63.4844C98.1615 63.4115 98.1458 63.349 98.1094 63.2969C98.0729 63.25 98.0156 63.2083 97.9427 63.1771C97.8646 63.151 97.7135 63.1354 97.4948 63.1354L97.5677 62.8854L99.7656 62.5H100.167L100.161 62.5104Z" fill="black"/>
<path d="M108.948 62.5105L108.662 64.5313H108.422C108.386 64.0052 108.229 63.5938 107.943 63.2917C107.657 62.9896 107.349 62.8386 107.026 62.8386C106.823 62.8386 106.657 62.8959 106.532 63.0157C106.396 63.1355 106.334 63.2761 106.334 63.4427C106.334 63.5834 106.365 63.7084 106.422 63.8334C106.479 63.9584 106.604 64.1198 106.797 64.3282C107.485 65.073 107.901 65.5834 108.052 65.8594C108.198 66.1407 108.271 66.4375 108.271 66.7552C108.271 67.099 108.188 67.4271 108.011 67.7344C107.839 68.0417 107.578 68.2865 107.235 68.474C106.886 68.6563 106.532 68.75 106.157 68.75C105.901 68.75 105.589 68.7032 105.224 68.6042C104.979 68.5313 104.797 68.5 104.677 68.5C104.568 68.5 104.479 68.5157 104.422 68.5469C104.36 68.5782 104.292 68.6459 104.219 68.7552H103.979L104.297 66.573H104.506C104.657 67.1042 104.802 67.4792 104.933 67.7032C105.063 67.9271 105.24 68.1094 105.464 68.2396C105.688 68.3698 105.901 68.4375 106.104 68.4375C106.344 68.4375 106.542 68.3646 106.698 68.2136C106.849 68.0573 106.933 67.8802 106.933 67.6719C106.933 67.4636 106.881 67.2709 106.776 67.0782C106.672 66.8855 106.438 66.5886 106.068 66.1823C105.558 65.6302 105.224 65.198 105.063 64.9011C104.948 64.6823 104.896 64.4323 104.896 64.1511C104.896 63.6823 105.068 63.2865 105.407 62.974C105.75 62.6615 106.229 62.5052 106.844 62.5052C107.115 62.5052 107.448 62.5521 107.834 62.6511C108.032 62.698 108.188 62.7188 108.302 62.7188C108.474 62.7188 108.61 62.6511 108.719 62.5052H108.953L108.948 62.5105Z" fill="black"/>
<path d="M113.006 60.9115L112.485 62.6927H113.334L113.104 63.4427H112.266L111.177 67.2396C111.104 67.474 111.073 67.6511 111.073 67.7761C111.073 67.8334 111.094 67.8802 111.131 67.9219C111.167 67.9636 111.214 67.9844 111.261 67.9844C111.334 67.9844 111.412 67.9532 111.49 67.8907C111.688 67.7396 111.922 67.474 112.188 67.0938L112.417 67.2396C112.115 67.7605 111.787 68.1459 111.427 68.3907C111.068 68.6355 110.714 68.7552 110.365 68.7552C110.068 68.7552 109.844 68.6823 109.677 68.5313C109.516 68.3802 109.433 68.1875 109.433 67.9584C109.433 67.7084 109.49 67.3802 109.604 66.9844L110.636 63.4427H109.745L109.881 62.9584C110.433 62.7552 110.901 62.5157 111.287 62.2396C111.672 61.9636 112.131 61.5209 112.667 60.9115H113.006Z" fill="black"/>
<path d="M116.047 62.5105L115.062 66.1824C115.875 64.3959 116.479 63.2865 116.891 62.8751C117.13 62.6303 117.38 62.5105 117.646 62.5105C117.828 62.5105 117.974 62.573 118.089 62.7084C118.203 62.8386 118.26 63.0313 118.26 63.2761C118.26 63.698 118.156 64.0522 117.953 64.3386C117.823 64.5209 117.677 64.6147 117.516 64.6147C117.339 64.6147 117.208 64.5365 117.12 64.3751C117.036 64.2136 116.974 64.1199 116.938 64.0886C116.906 64.0626 116.87 64.047 116.828 64.047C116.786 64.047 116.74 64.0626 116.688 64.0886C116.594 64.1407 116.469 64.2657 116.312 64.4688C116.161 64.672 115.974 65.0105 115.745 65.4845C115.521 65.9636 115.344 66.3647 115.214 66.6876C115.089 67.0157 114.911 67.6459 114.688 68.5678H113.109L114.188 64.2345C114.26 63.9115 114.302 63.698 114.302 63.5938C114.302 63.474 114.281 63.3855 114.24 63.3178C114.198 63.2501 114.141 63.2032 114.073 63.172C114 63.1407 113.849 63.1303 113.625 63.1303L113.682 62.9376L115.651 62.5105H116.047Z" fill="black"/>
<path d="M121.63 62.5105L120.37 66.9532C120.307 67.1563 120.276 67.3022 120.276 67.3803C120.276 67.4167 120.292 67.448 120.323 67.4688C120.354 67.5053 120.401 67.5209 120.443 67.5209C120.646 67.5209 120.911 67.3438 121.245 66.9845C121.724 66.4688 122.229 65.724 122.75 64.7501L123.344 62.7501L124.995 62.6928L123.74 67.0105C123.641 67.3751 123.583 67.5834 123.583 67.6355C123.583 67.672 123.604 67.7084 123.635 67.7449C123.667 67.7813 123.698 67.8022 123.734 67.8022C123.792 67.8022 123.854 67.7761 123.906 67.724C124.068 67.599 124.271 67.3438 124.526 66.9584L124.745 67.1147C124.141 68.2084 123.474 68.7553 122.75 68.7553C122.484 68.7553 122.271 68.6876 122.115 68.5522C121.964 68.4115 121.885 68.2292 121.885 68.0105C121.885 67.7761 121.938 67.474 122.047 67.1147L122.37 66.0105C121.802 66.8334 121.391 67.3907 121.135 67.6772C120.745 68.1095 120.411 68.3959 120.146 68.5417C119.88 68.6824 119.625 68.7553 119.38 68.7553C119.151 68.7553 118.953 68.672 118.781 68.5001C118.615 68.3334 118.531 68.1147 118.531 67.8542C118.531 67.6303 118.583 67.3282 118.693 66.9584L119.427 64.3438C119.552 63.9167 119.615 63.6251 119.615 63.4792C119.615 63.4115 119.594 63.3542 119.562 63.3074C119.526 63.2553 119.469 63.2188 119.391 63.1876C119.307 63.1615 119.161 63.1459 118.943 63.1459L119.01 62.8959L121.234 62.5105H121.63Z" fill="black"/>
<path d="M130.458 66.9948L130.656 67.1719C130.234 67.6771 129.818 68.0469 129.411 68.2812C128.865 68.5938 128.302 68.75 127.719 68.75C127.328 68.75 126.984 68.6667 126.682 68.5C126.38 68.3333 126.156 68.099 126.01 67.7917C125.87 67.4896 125.797 67.1771 125.797 66.8594C125.797 66.1458 125.99 65.4427 126.38 64.75C126.766 64.0573 127.276 63.5104 127.911 63.1094C128.542 62.7031 129.167 62.5 129.781 62.5C130.271 62.5 130.641 62.6094 130.891 62.8281C131.135 63.0469 131.26 63.3177 131.26 63.6406C131.26 63.9323 131.167 64.1823 130.979 64.3906C130.792 64.5938 130.583 64.6927 130.354 64.6927C130.151 64.6927 129.99 64.6302 129.854 64.5C129.724 64.3698 129.656 64.2135 129.656 64.0365C129.656 63.8021 129.776 63.5938 130.01 63.4219C130.172 63.3021 130.25 63.1927 130.25 63.099C130.25 63.0208 130.219 62.9583 130.151 62.9115C130.068 62.8385 129.953 62.8073 129.818 62.8073C129.448 62.8073 129.104 62.9583 128.786 63.25C128.359 63.6458 128.031 64.1406 127.807 64.7448C127.578 65.349 127.469 65.9167 127.469 66.4583C127.469 66.8854 127.583 67.2292 127.812 67.4844C128.047 67.7396 128.318 67.8646 128.635 67.8646C128.911 67.8646 129.214 67.7917 129.542 67.651C129.865 67.5052 130.172 67.2865 130.464 66.9948H130.458Z" fill="black"/>
<path d="M135.203 60.9115L134.682 62.6927H135.531L135.302 63.4427H134.464L133.375 67.2396C133.302 67.474 133.271 67.6511 133.271 67.7761C133.271 67.8334 133.292 67.8802 133.328 67.9219C133.365 67.9636 133.412 67.9844 133.458 67.9844C133.531 67.9844 133.61 67.9532 133.688 67.8907C133.886 67.7396 134.12 67.474 134.386 67.0938L134.615 67.2396C134.313 67.7605 133.985 68.1459 133.625 68.3907C133.266 68.6355 132.912 68.7552 132.563 68.7552C132.266 68.7552 132.042 68.6823 131.875 68.5313C131.714 68.3802 131.63 68.1875 131.63 67.9584C131.63 67.7084 131.688 67.3802 131.802 66.9844L132.833 63.4427H131.943L132.078 62.9584C132.63 62.7552 133.099 62.5157 133.485 62.2396C133.87 61.9636 134.328 61.5209 134.865 60.9115H135.203Z" fill="black"/>
<path d="M138.542 62.5105L137.203 67.1563C137.131 67.4272 137.094 67.599 137.094 67.6824C137.094 67.7292 137.115 67.7709 137.151 67.8178C137.193 67.8542 137.229 67.8803 137.276 67.8803C137.349 67.8803 137.422 67.849 137.495 67.7813C137.688 67.6199 137.922 67.3282 138.198 66.9063L138.417 67.0365C137.766 68.1876 137.063 68.7553 136.328 68.7553C136.042 68.7553 135.818 68.6772 135.651 68.5209C135.485 68.3595 135.401 68.1563 135.401 67.9115C135.401 67.7501 135.438 67.547 135.511 67.297L136.417 64.172C136.506 63.8699 136.552 63.6459 136.552 63.4949C136.552 63.3959 136.511 63.3126 136.427 63.2397C136.344 63.1615 136.235 63.1251 136.089 63.1251C136.021 63.1251 135.948 63.1251 135.854 63.1303L135.938 62.8699L138.151 62.5105H138.542ZM138.141 59.4949C138.407 59.4949 138.636 59.5938 138.818 59.7761C139.006 59.9636 139.099 60.1928 139.099 60.4584C139.099 60.724 139 60.9532 138.818 61.1407C138.631 61.323 138.407 61.422 138.141 61.422C137.87 61.422 137.657 61.323 137.464 61.1407C137.282 60.9532 137.188 60.724 137.188 60.4584C137.188 60.1928 137.276 59.9636 137.464 59.7761C137.651 59.5938 137.87 59.4949 138.141 59.4949Z" fill="black"/>
<path d="M143.234 62.5104C143.578 62.5104 143.901 62.5885 144.203 62.7448C144.505 62.9063 144.734 63.1302 144.885 63.4115C145.042 63.6927 145.12 64.0052 145.12 64.349C145.12 65.0573 144.922 65.7604 144.531 66.4688C144.135 67.1771 143.615 67.7344 142.974 68.1406C142.333 68.5469 141.682 68.75 141.031 68.75C140.438 68.75 139.984 68.5729 139.656 68.2188C139.333 67.8646 139.172 67.4375 139.172 66.9271C139.172 66.3177 139.292 65.75 139.531 65.2188C139.771 64.6875 140.078 64.2292 140.453 63.8333C140.823 63.4427 141.25 63.1198 141.734 62.875C142.219 62.625 142.714 62.5 143.234 62.5V62.5104ZM142.969 62.8542C142.74 62.8542 142.547 62.9219 142.396 63.0573C142.094 63.3333 141.75 63.974 141.365 64.9844C140.984 65.9948 140.792 66.901 140.792 67.7135C140.792 67.9115 140.854 68.0781 140.979 68.2083C141.099 68.3385 141.245 68.401 141.406 68.401C141.568 68.401 141.729 68.3542 141.854 68.2448C142.047 68.0885 142.281 67.7396 142.562 67.1875C142.839 66.6406 143.068 66.0365 143.245 65.3802C143.422 64.7188 143.51 64.1146 143.51 63.5625C143.51 63.3385 143.453 63.1615 143.349 63.0365C143.24 62.9167 143.115 62.8542 142.969 62.8542Z" fill="black"/>
<path d="M149.094 62.5104L148.287 65.3125C148.828 64.4896 149.235 63.9323 149.506 63.6302C149.896 63.1927 150.24 62.8958 150.526 62.7396C150.813 62.5833 151.084 62.5052 151.339 62.5052C151.563 62.5052 151.761 62.5885 151.917 62.7552C152.078 62.9271 152.162 63.1458 152.162 63.4167C152.162 63.6615 152.11 63.9531 152 64.3073L151.167 67.099C151.099 67.3438 151.063 67.5 151.063 67.5729C151.063 67.6146 151.078 67.6562 151.11 67.6927C151.141 67.724 151.177 67.7448 151.214 67.7448C151.256 67.7448 151.302 67.724 151.349 67.6927C151.5 67.5677 151.657 67.3854 151.813 67.1562C151.854 67.0938 151.917 67.0052 152 66.8802L152.25 67.0312C151.615 68.1042 150.938 68.6458 150.235 68.6458C149.969 68.6458 149.756 68.5781 149.604 68.4375C149.453 68.2969 149.375 68.1198 149.375 67.9115C149.375 67.7292 149.427 67.4583 149.532 67.0938L150.349 64.3021C150.407 64.1198 150.433 63.9844 150.433 63.8958C150.433 63.849 150.412 63.8073 150.375 63.7708C150.339 63.7344 150.292 63.7188 150.24 63.7188C150.073 63.7188 149.87 63.8333 149.636 64.0573C149.037 64.6302 148.459 65.4896 147.896 66.625L147.365 68.5677H145.698L146.917 64.3698C147.037 63.9531 147.094 63.6615 147.094 63.4844C147.094 63.4115 147.078 63.349 147.047 63.2969C147.011 63.25 146.953 63.2083 146.875 63.1771C146.797 63.151 146.651 63.1354 146.433 63.1354L146.506 62.8854L148.703 62.5H149.099L149.094 62.5104Z" fill="black"/>
<path d="M160.083 64.4949L159.365 66.9636C159.261 67.3178 159.214 67.5574 159.214 67.7032C159.214 67.9063 159.281 68.0574 159.406 68.1563C159.542 68.2605 159.833 68.3126 160.297 68.323L160.208 68.5626H155.896L155.964 68.323C156.333 68.323 156.589 68.2813 156.74 68.2136C156.891 68.1459 157.021 68.0365 157.12 67.8855C157.193 67.7813 157.302 67.474 157.453 66.9636L159.089 61.3334C159.198 60.9532 159.255 60.6876 159.255 60.5261C159.255 60.3647 159.188 60.2292 159.042 60.1199C158.901 60.0105 158.641 59.948 158.261 59.9376L158.333 59.698H161.833C162.797 59.698 163.49 59.823 163.912 60.0678C164.563 60.448 164.891 61.0261 164.891 61.7917C164.891 62.5626 164.563 63.1876 163.912 63.7501C163.266 64.3178 162.391 64.599 161.287 64.599C160.958 64.599 160.557 64.5626 160.083 64.4949ZM160.214 63.9897C160.495 64.0261 160.729 64.0417 160.917 64.0417C161.516 64.0417 161.99 63.7657 162.333 63.2188C162.672 62.672 162.844 62.099 162.844 61.5001C162.844 61.0938 162.735 60.7813 162.516 60.5574C162.292 60.3334 161.985 60.2188 161.594 60.2188C161.511 60.2188 161.412 60.224 161.287 60.2345L160.214 63.9949V63.9897Z" fill="black"/>
<path d="M167.667 62.5105L166.682 66.1824C167.49 64.3959 168.099 63.2865 168.505 62.8751C168.75 62.6303 169 62.5105 169.261 62.5105C169.448 62.5105 169.594 62.573 169.708 62.7084C169.818 62.8386 169.875 63.0313 169.875 63.2761C169.875 63.698 169.771 64.0522 169.568 64.3386C169.438 64.5209 169.292 64.6147 169.13 64.6147C168.958 64.6147 168.828 64.5365 168.74 64.3751C168.651 64.2136 168.589 64.1199 168.557 64.0886C168.521 64.0626 168.485 64.047 168.443 64.047C168.401 64.047 168.354 64.0626 168.307 64.0886C168.214 64.1407 168.089 64.2657 167.932 64.4688C167.776 64.672 167.589 65.0105 167.365 65.4845C167.136 65.9636 166.958 66.3647 166.833 66.6876C166.708 67.0209 166.531 67.6459 166.302 68.5678H164.724L165.802 64.2345C165.88 63.9115 165.922 63.698 165.922 63.5938C165.922 63.474 165.901 63.3855 165.86 63.3178C165.818 63.2501 165.761 63.2032 165.688 63.172C165.615 63.1407 165.469 63.1303 165.24 63.1303L165.297 62.9376L167.266 62.5105H167.667Z" fill="black"/>
<path d="M174.089 62.5104C174.433 62.5104 174.756 62.5885 175.058 62.7448C175.36 62.9063 175.589 63.1302 175.745 63.4115C175.896 63.6927 175.974 64.0052 175.974 64.349C175.974 65.0573 175.776 65.7604 175.386 66.4688C174.995 67.1771 174.474 67.7344 173.828 68.1406C173.188 68.5469 172.542 68.75 171.886 68.75C171.297 68.75 170.839 68.5729 170.516 68.2188C170.188 67.8646 170.026 67.4375 170.026 66.9271C170.026 66.3177 170.146 65.75 170.386 65.2188C170.631 64.6875 170.933 64.2292 171.308 63.8333C171.677 63.4427 172.104 63.1198 172.589 62.875C173.073 62.625 173.568 62.5 174.089 62.5V62.5104ZM173.823 62.8542C173.589 62.8542 173.401 62.9219 173.25 63.0573C172.948 63.3333 172.604 63.974 172.219 64.9844C171.834 65.9948 171.646 66.901 171.646 67.7135C171.646 67.9115 171.709 68.0781 171.828 68.2083C171.953 68.3385 172.094 68.401 172.261 68.401C172.422 68.401 172.578 68.3542 172.709 68.2448C172.901 68.0885 173.136 67.7396 173.412 67.1875C173.693 66.6406 173.917 66.0365 174.099 65.3802C174.276 64.7188 174.365 64.1146 174.365 63.5625C174.365 63.3385 174.308 63.1615 174.198 63.0365C174.089 62.9167 173.964 62.8542 173.823 62.8542Z" fill="black"/>
<path d="M179.933 62.5105L178.542 67.6563C178.261 68.7032 177.933 69.5365 177.578 70.1459C177.334 70.573 177 70.8959 176.589 71.1251C176.172 71.349 175.745 71.4584 175.302 71.4584C174.938 71.4584 174.667 71.3907 174.49 71.2449C174.313 71.1042 174.229 70.9376 174.229 70.7553C174.229 70.573 174.302 70.4115 174.448 70.2657C174.594 70.1251 174.776 70.0522 175.006 70.0522C175.177 70.0522 175.318 70.099 175.417 70.1928C175.516 70.2917 175.563 70.4011 175.563 70.5313C175.563 70.6615 175.506 70.7813 175.386 70.9115C175.339 70.9636 175.318 71.0001 175.318 71.0261C175.318 71.0574 175.328 71.0834 175.36 71.1095C175.386 71.1303 175.433 71.1459 175.485 71.1459C175.677 71.1459 175.844 71.0365 175.979 70.8178C176.073 70.672 176.245 70.1303 176.49 69.198L177.818 64.1563C177.917 63.797 177.964 63.5678 177.964 63.4792C177.964 63.3855 177.917 63.3074 177.818 63.224C177.724 63.1459 177.599 63.1042 177.443 63.1042C177.396 63.1042 177.339 63.1042 177.276 63.1095L177.344 62.8595L179.542 62.5001H179.938L179.933 62.5105ZM179.386 59.4949C179.657 59.4949 179.886 59.5938 180.068 59.7813C180.256 59.9688 180.349 60.198 180.349 60.4688C180.349 60.7397 180.256 60.9636 180.068 61.1511C179.881 61.3438 179.651 61.4376 179.386 61.4376C179.12 61.4376 178.886 61.3438 178.698 61.1511C178.511 60.9636 178.417 60.7397 178.417 60.4688C178.417 60.2032 178.511 59.9688 178.698 59.7813C178.886 59.5938 179.115 59.4949 179.386 59.4949Z" fill="black"/>
<path d="M182.177 66.1146C182.136 66.401 182.12 66.6302 182.12 66.8177C182.12 67.1458 182.214 67.4063 182.401 67.599C182.589 67.7969 182.844 67.8958 183.162 67.8958C183.474 67.8958 183.771 67.8229 184.078 67.6719C184.381 67.5208 184.74 67.2656 185.146 66.8958L185.339 67.0677C184.839 67.6771 184.349 68.1094 183.881 68.3646C183.407 68.6198 182.881 68.75 182.308 68.75C181.584 68.75 181.078 68.5729 180.802 68.224C180.526 67.875 180.386 67.474 180.386 67.0156C180.386 66.3021 180.594 65.5833 181.011 64.8698C181.422 64.1563 181.99 63.5833 182.703 63.151C183.417 62.7187 184.136 62.5 184.86 62.5C185.224 62.5 185.5 62.5885 185.688 62.7656C185.87 62.9375 185.964 63.1615 185.964 63.4219C185.964 63.7448 185.875 64.0521 185.693 64.3542C185.438 64.7656 185.12 65.0938 184.74 65.3438C184.354 65.5938 183.927 65.7865 183.453 65.9167C183.136 66 182.709 66.0677 182.172 66.1094L182.177 66.1146ZM182.235 65.776C182.62 65.7187 182.917 65.6406 183.125 65.5469C183.339 65.4479 183.542 65.2917 183.745 65.0729C183.943 64.8594 184.12 64.5885 184.271 64.2552C184.417 63.9271 184.49 63.6198 184.49 63.3333C184.49 63.2083 184.453 63.1146 184.391 63.0469C184.323 62.974 184.235 62.9427 184.131 62.9427C183.922 62.9427 183.688 63.0885 183.427 63.3802C182.948 63.9115 182.552 64.7135 182.235 65.7812V65.776Z" fill="black"/>
<path d="M191.032 66.9948L191.224 67.1719C190.808 67.6771 190.391 68.0469 189.979 68.2812C189.438 68.5938 188.875 68.75 188.292 68.75C187.901 68.75 187.552 68.6667 187.256 68.5C186.948 68.3333 186.729 68.099 186.584 67.7917C186.443 67.4896 186.37 67.1771 186.37 66.8594C186.37 66.1458 186.563 65.4427 186.948 64.75C187.339 64.0573 187.849 63.5104 188.479 63.1094C189.115 62.7031 189.74 62.5 190.354 62.5C190.844 62.5 191.214 62.6094 191.459 62.8281C191.709 63.0469 191.834 63.3177 191.834 63.6406C191.834 63.9323 191.74 64.1823 191.552 64.3906C191.365 64.5938 191.157 64.6927 190.927 64.6927C190.724 64.6927 190.558 64.6302 190.427 64.5C190.297 64.3698 190.229 64.2135 190.229 64.0365C190.229 63.8021 190.344 63.5938 190.578 63.4219C190.74 63.3021 190.818 63.1927 190.818 63.099C190.818 63.0208 190.787 62.9583 190.724 62.9115C190.636 62.8385 190.521 62.8073 190.386 62.8073C190.016 62.8073 189.677 62.9583 189.354 63.25C188.927 63.6458 188.599 64.1406 188.375 64.7448C188.151 65.349 188.037 65.9167 188.037 66.4583C188.037 66.8854 188.151 67.2292 188.386 67.4844C188.615 67.7396 188.886 67.8646 189.203 67.8646C189.485 67.8646 189.782 67.7917 190.11 67.651C190.433 67.5052 190.745 67.2865 191.032 66.9948Z" fill="black"/>
<path d="M195.828 60.9115L195.308 62.6927H196.162L195.933 63.4427H195.089L194 67.2396C193.933 67.474 193.896 67.6511 193.896 67.7761C193.896 67.8334 193.917 67.8802 193.953 67.9219C193.99 67.9636 194.037 67.9844 194.084 67.9844C194.162 67.9844 194.235 67.9532 194.313 67.8907C194.516 67.7396 194.745 67.474 195.011 67.0938L195.24 67.2396C194.943 67.7605 194.61 68.1459 194.25 68.3907C193.891 68.6355 193.537 68.7552 193.188 68.7552C192.896 68.7552 192.667 68.6823 192.5 68.5313C192.339 68.3802 192.261 68.1875 192.261 67.9584C192.261 67.7084 192.318 67.3802 192.427 66.9844L193.459 63.4427H192.573L192.703 62.9584C193.261 62.7552 193.729 62.5157 194.11 62.2396C194.495 61.9636 194.953 61.5209 195.495 60.9115H195.834H195.828Z" fill="black"/>
<path d="M200.677 62.5105L200.391 64.5313H200.151C200.12 64.0052 199.958 63.5938 199.677 63.2917C199.391 62.9896 199.083 62.8386 198.761 62.8386C198.557 62.8386 198.391 62.8959 198.266 63.0157C198.13 63.1355 198.068 63.2761 198.068 63.4427C198.068 63.5834 198.099 63.7084 198.156 63.8334C198.214 63.9584 198.339 64.1198 198.531 64.3282C199.219 65.073 199.636 65.5834 199.781 65.8594C199.932 66.1407 200.005 66.4375 200.005 66.7552C200.005 67.099 199.922 67.4271 199.745 67.7344C199.573 68.0417 199.313 68.2865 198.969 68.474C198.62 68.6563 198.266 68.75 197.891 68.75C197.636 68.75 197.323 68.7032 196.953 68.6042C196.714 68.5313 196.531 68.5 196.412 68.5C196.302 68.5 196.214 68.5157 196.156 68.5469C196.094 68.5782 196.026 68.6459 195.953 68.7552H195.708L196.031 66.573H196.24C196.391 67.1042 196.537 67.4792 196.667 67.7032C196.797 67.9271 196.974 68.1094 197.198 68.2396C197.422 68.3698 197.636 68.4375 197.839 68.4375C198.078 68.4375 198.276 68.3646 198.427 68.2136C198.583 68.0573 198.667 67.8802 198.667 67.6719C198.667 67.4636 198.615 67.2709 198.511 67.0782C198.406 66.8855 198.172 66.5886 197.802 66.1823C197.292 65.6302 196.958 65.198 196.797 64.9011C196.682 64.6823 196.63 64.4323 196.63 64.1511C196.63 63.6823 196.802 63.2865 197.141 62.974C197.485 62.6615 197.964 62.5052 198.578 62.5052C198.849 62.5052 199.177 62.5521 199.568 62.6511C199.766 62.698 199.922 62.7188 200.037 62.7188C200.208 62.7188 200.344 62.6511 200.448 62.5052H200.688L200.677 62.5105Z" fill="black"/>
<path d="M90.6302 75.573L89.9792 78.3907H89.724C89.6927 77.6251 89.5052 77.047 89.1615 76.672C88.8125 76.297 88.3646 76.1095 87.8073 76.1095C87.2031 76.1095 86.6094 76.3647 86.0104 76.8803C85.4167 77.3959 84.9115 78.1824 84.5 79.2397C84.1615 80.099 83.9948 80.948 83.9948 81.7865C83.9948 82.5365 84.1823 83.1095 84.5469 83.5001C84.9167 83.8959 85.4219 84.0938 86.0625 84.0938C86.5781 84.0938 87.0521 83.9792 87.474 83.7553C87.901 83.5261 88.3281 83.1615 88.7656 82.6511H89.0781C88.5365 83.4636 87.9948 84.0313 87.4427 84.3542C86.8958 84.6824 86.2188 84.849 85.4271 84.849C84.3594 84.849 83.5 84.5209 82.8542 83.8751C82.2031 83.2292 81.875 82.3855 81.875 81.3438C81.875 80.3647 82.1354 79.4324 82.651 78.547C83.1719 77.6615 83.9115 76.9428 84.8854 76.3959C85.8542 75.8438 86.8229 75.573 87.7812 75.573C88.151 75.573 88.6042 75.6511 89.1458 75.8074C89.4219 75.8855 89.6198 75.9272 89.7292 75.9272C89.9427 75.9272 90.1667 75.8074 90.3854 75.573H90.6302Z" fill="black"/>
<path d="M94.3022 78.5782C94.646 78.5782 94.9689 78.6615 95.271 78.8178C95.5731 78.974 95.8022 79.198 95.9533 79.4792C96.1095 79.7657 96.1877 80.0782 96.1877 80.422C96.1877 81.1303 95.9897 81.8334 95.5991 82.5417C95.2033 83.2449 94.6825 83.8022 94.0418 84.2084C93.4012 84.6199 92.7502 84.823 92.0991 84.823C91.5054 84.823 91.0522 84.6459 90.7241 84.2917C90.4012 83.9376 90.2397 83.5053 90.2397 82.9949C90.2397 82.3907 90.3595 81.823 90.5991 81.2917C90.8387 80.7605 91.146 80.297 91.521 79.9063C91.8908 79.5105 92.3179 79.1928 92.8022 78.9428C93.2866 78.698 93.7814 78.573 94.3022 78.573V78.5782ZM94.0366 78.9272C93.8022 78.9272 93.6147 78.9949 93.4637 79.1303C93.1564 79.4063 92.8127 80.047 92.4325 81.0574C92.047 82.0678 91.8595 82.974 91.8595 83.7865C91.8595 83.9845 91.9168 84.1511 92.0418 84.2813C92.1668 84.4167 92.3075 84.4792 92.4741 84.4792C92.6356 84.4792 92.7918 84.4272 92.922 84.3178C93.1147 84.1615 93.3491 83.8126 93.6252 83.2657C93.9012 82.7136 94.1304 82.1147 94.3075 81.4532C94.4845 80.7917 94.5731 80.1876 94.5731 79.6355C94.5731 79.4115 94.521 79.2345 94.4116 79.1147C94.3022 78.9897 94.1772 78.9272 94.0366 78.9272Z" fill="black"/>
<path d="M100.141 78.5781L99.3024 81.3906C99.8649 80.526 100.271 79.9427 100.526 79.6458C100.907 79.2083 101.219 78.9167 101.464 78.7812C101.709 78.6458 101.959 78.5781 102.203 78.5781C102.49 78.5781 102.693 78.6667 102.818 78.8333C102.943 79.0052 103.006 79.1927 103.006 79.3958C103.006 79.599 102.948 79.9271 102.828 80.3385L102.537 81.3906C103.099 80.5208 103.506 79.9375 103.756 79.651C104.136 79.2083 104.469 78.9063 104.75 78.75C104.948 78.6354 105.157 78.5833 105.381 78.5833C105.604 78.5833 105.802 78.6615 105.959 78.8125C106.11 78.9688 106.188 79.1719 106.188 79.4219C106.188 79.6979 106.125 80.0573 105.995 80.5052L105.271 82.9427C105.162 83.3073 105.11 83.5365 105.11 83.6458C105.11 83.6771 105.12 83.7135 105.151 83.7448C105.177 83.7708 105.209 83.7865 105.245 83.7865C105.292 83.7865 105.334 83.776 105.37 83.7448C105.526 83.6146 105.688 83.4271 105.865 83.1875C105.901 83.1354 105.959 83.0521 106.037 82.9427L106.261 83.0885C105.959 83.651 105.631 84.0625 105.271 84.3229C104.917 84.5885 104.584 84.7188 104.282 84.7188C104.016 84.7188 103.802 84.6458 103.641 84.5C103.479 84.3542 103.401 84.1823 103.401 83.9844C103.401 83.7917 103.459 83.5156 103.563 83.1354L104.302 80.5833C104.401 80.2344 104.448 80.0104 104.448 79.9271C104.448 79.8958 104.433 79.8646 104.401 79.8385C104.37 79.8073 104.344 79.7917 104.313 79.7917C104.256 79.7917 104.198 79.8073 104.141 79.8333C104.058 79.875 103.933 79.9896 103.761 80.1719C103.589 80.3542 103.344 80.6823 103.021 81.1562C102.698 81.6302 102.479 82 102.349 82.2656C102.229 82.5313 102.104 82.875 101.985 83.2969L101.584 84.6458H99.9378L101.157 80.375C101.219 80.1406 101.25 79.9844 101.25 79.8958C101.25 79.8646 101.24 79.8385 101.209 79.8125C101.183 79.7865 101.151 79.7708 101.12 79.7708C100.959 79.7708 100.703 79.9844 100.354 80.4062C99.8285 81.0573 99.3441 81.8438 98.9066 82.7656L98.3805 84.6458H96.7139L97.943 80.4375C98.0628 80.026 98.1253 79.7292 98.1253 79.5573C98.1253 79.4844 98.1097 79.4271 98.0732 79.375C98.0368 79.3229 97.9795 79.2865 97.9014 79.2552C97.8285 79.2292 97.6774 79.2135 97.4535 79.2135L97.5212 78.9635L99.7451 78.5781H100.141Z" fill="black"/>
<path d="M110.526 78.5781L109.693 81.3906C110.256 80.526 110.662 79.9427 110.917 79.6458C111.297 79.2083 111.61 78.9167 111.854 78.7812C112.099 78.6458 112.344 78.5781 112.594 78.5781C112.881 78.5781 113.084 78.6667 113.209 78.8333C113.334 79.0052 113.396 79.1927 113.396 79.3958C113.396 79.599 113.339 79.9271 113.219 80.3385L112.927 81.3906C113.49 80.5208 113.896 79.9375 114.146 79.651C114.532 79.2083 114.86 78.9063 115.146 78.75C115.339 78.6354 115.547 78.5833 115.771 78.5833C115.995 78.5833 116.193 78.6615 116.349 78.8125C116.506 78.9688 116.584 79.1719 116.584 79.4219C116.584 79.6979 116.516 80.0573 116.386 80.5052L115.662 82.9427C115.552 83.3073 115.5 83.5365 115.5 83.6458C115.5 83.6771 115.516 83.7135 115.542 83.7448C115.573 83.7708 115.604 83.7865 115.636 83.7865C115.688 83.7865 115.724 83.776 115.761 83.7448C115.917 83.6146 116.078 83.4271 116.256 83.1875C116.297 83.1354 116.354 83.0521 116.433 82.9427L116.651 83.0885C116.354 83.651 116.021 84.0625 115.667 84.3229C115.308 84.5885 114.974 84.7188 114.672 84.7188C114.401 84.7188 114.193 84.6458 114.032 84.5C113.87 84.3542 113.792 84.1823 113.792 83.9844C113.792 83.7917 113.844 83.5156 113.953 83.1354L114.688 80.5833C114.792 80.2344 114.839 80.0104 114.839 79.9271C114.839 79.8958 114.823 79.8646 114.792 79.8385C114.761 79.8073 114.735 79.7917 114.703 79.7917C114.646 79.7917 114.589 79.8073 114.532 79.8333C114.448 79.875 114.323 79.9896 114.151 80.1719C113.979 80.3542 113.735 80.6823 113.412 81.1562C113.089 81.6302 112.865 82 112.74 82.2656C112.62 82.5313 112.495 82.875 112.37 83.2969L111.974 84.6458H110.323L111.542 80.375C111.61 80.1406 111.641 79.9844 111.641 79.8958C111.641 79.8646 111.625 79.8385 111.599 79.8125C111.568 79.7865 111.542 79.7708 111.511 79.7708C111.349 79.7708 111.094 79.9844 110.745 80.4062C110.214 81.0573 109.735 81.8438 109.297 82.7656L108.766 84.6458H107.104L108.328 80.4375C108.453 80.026 108.516 79.7292 108.516 79.5573C108.516 79.4844 108.495 79.4271 108.464 79.375C108.427 79.3229 108.37 79.2865 108.292 79.2552C108.214 79.2292 108.063 79.2135 107.844 79.2135L107.912 78.9635L110.136 78.5781H110.526Z" fill="black"/>
<path d="M119.495 82.1875C119.453 82.474 119.438 82.7083 119.438 82.8906C119.438 83.2188 119.531 83.4792 119.719 83.6719C119.911 83.8698 120.167 83.9688 120.479 83.9688C120.792 83.9688 121.089 83.8958 121.396 83.7448C121.703 83.5938 122.057 83.3385 122.464 82.9688L122.656 83.1406C122.156 83.75 121.672 84.1823 121.198 84.4375C120.724 84.6927 120.198 84.8229 119.625 84.8229C118.901 84.8229 118.401 84.6458 118.12 84.2969C117.844 83.9531 117.703 83.5469 117.703 83.0885C117.703 82.375 117.911 81.6562 118.328 80.9427C118.74 80.2292 119.307 79.6563 120.021 79.224C120.734 78.7917 121.453 78.5781 122.177 78.5781C122.542 78.5781 122.818 78.6615 123.005 78.8385C123.188 79.0104 123.286 79.2344 123.286 79.4948C123.286 79.8177 123.193 80.125 123.01 80.4271C122.755 80.8385 122.438 81.1667 122.057 81.4167C121.672 81.6667 121.245 81.8594 120.771 81.9896C120.453 82.0729 120.026 82.1406 119.49 82.1823L119.495 82.1875ZM119.557 81.849C119.937 81.7917 120.234 81.7135 120.443 81.6198C120.656 81.5208 120.865 81.3646 121.062 81.1458C121.266 80.9323 121.443 80.6615 121.589 80.3281C121.734 80 121.812 79.6927 121.812 79.4062C121.812 79.2812 121.776 79.1875 121.708 79.1198C121.646 79.0521 121.557 79.0156 121.453 79.0156C121.245 79.0156 121.01 79.1615 120.75 79.4531C120.271 79.9844 119.875 80.7865 119.557 81.8542V81.849Z" fill="black"/>
<path d="M126.5 78.5781L125.516 82.2552C126.323 80.4635 126.933 79.3594 127.339 78.9479C127.578 78.7031 127.834 78.5781 128.094 78.5781C128.276 78.5781 128.422 78.6458 128.537 78.7812C128.651 78.9167 128.709 79.099 128.709 79.3438C128.709 79.7656 128.604 80.125 128.401 80.4115C128.271 80.5938 128.125 80.6875 127.964 80.6875C127.787 80.6875 127.662 80.6042 127.573 80.4427C127.485 80.2812 127.422 80.1875 127.391 80.1615C127.354 80.1302 127.318 80.1198 127.276 80.1198C127.235 80.1198 127.188 80.1302 127.141 80.1562C127.047 80.2083 126.917 80.3385 126.766 80.5417C126.61 80.7396 126.422 81.0833 126.193 81.5573C125.969 82.0313 125.792 82.4323 125.667 82.7604C125.537 83.0885 125.36 83.7188 125.136 84.6406H123.558L124.636 80.3021C124.714 79.9844 124.75 79.7656 124.75 79.6615C124.75 79.5469 124.735 79.4531 124.688 79.3906C124.651 79.3229 124.594 79.276 124.521 79.2448C124.448 79.2135 124.302 79.1979 124.073 79.1979L124.131 79.0104L126.099 78.5781H126.5Z" fill="black"/>
<path d="M133.547 83.0626L133.74 83.2397C133.323 83.7449 132.907 84.1147 132.495 84.349C131.953 84.6615 131.391 84.823 130.808 84.823C130.417 84.823 130.068 84.7397 129.771 84.5678C129.464 84.4011 129.245 84.1667 129.104 83.8647C128.959 83.5574 128.886 83.2501 128.886 82.9324C128.886 82.2136 129.084 81.5105 129.469 80.823C129.854 80.1303 130.37 79.5834 131 79.1772C131.636 78.7761 132.261 78.573 132.87 78.573C133.365 78.573 133.735 78.6824 133.979 78.9011C134.224 79.1199 134.354 79.3907 134.354 79.7136C134.354 80.0053 134.256 80.2501 134.073 80.4584C133.886 80.6615 133.677 80.7657 133.443 80.7657C133.245 80.7657 133.078 80.698 132.948 80.573C132.813 80.4428 132.745 80.2865 132.745 80.1042C132.745 79.8699 132.865 79.6667 133.099 79.4897C133.261 79.3699 133.339 79.2605 133.339 79.172C133.339 79.0938 133.308 79.0313 133.24 78.9792C133.157 78.9115 133.042 78.8751 132.901 78.8751C132.537 78.8751 132.193 79.0261 131.875 79.323C131.448 79.7136 131.12 80.2136 130.896 80.8126C130.667 81.4167 130.558 81.9897 130.558 82.5261C130.558 82.9584 130.672 83.297 130.901 83.5522C131.131 83.8074 131.407 83.9324 131.724 83.9324C132 83.9324 132.302 83.8647 132.631 83.7188C132.953 83.5782 133.261 83.3595 133.552 83.0626H133.547Z" fill="black"/>
<path d="M137.891 78.5782L136.557 83.2292C136.479 83.4949 136.443 83.6667 136.443 83.7501C136.443 83.8022 136.464 83.8438 136.5 83.8855C136.542 83.9272 136.583 83.948 136.625 83.948C136.698 83.948 136.771 83.9167 136.844 83.849C137.036 83.6928 137.276 83.3959 137.547 82.974L137.771 83.1095C137.115 84.2553 136.417 84.8282 135.677 84.8282C135.396 84.8282 135.172 84.7449 135 84.5886C134.833 84.4324 134.75 84.2292 134.75 83.9845C134.75 83.823 134.786 83.6147 134.859 83.3699L135.771 80.2449C135.854 79.9428 135.901 79.7136 135.901 79.5626C135.901 79.4688 135.859 79.3803 135.776 79.3074C135.693 79.2345 135.583 79.198 135.438 79.198C135.375 79.198 135.297 79.198 135.203 79.2032L135.292 78.9428L137.5 78.5834H137.891V78.5782ZM137.49 75.573C137.755 75.573 137.984 75.6667 138.172 75.8542C138.354 76.0365 138.448 76.2657 138.448 76.5313C138.448 76.797 138.354 77.0261 138.167 77.2136C137.979 77.4011 137.755 77.4949 137.49 77.4949C137.224 77.4949 137.005 77.4011 136.818 77.2136C136.63 77.0261 136.536 76.797 136.536 76.5313C136.536 76.2657 136.625 76.0365 136.812 75.8542C137 75.6667 137.224 75.573 137.49 75.573Z" fill="black"/>
<path d="M144.594 78.6719L143.328 83.0208L143.198 83.5521C143.183 83.6146 143.177 83.6667 143.177 83.6927C143.177 83.7448 143.193 83.7917 143.235 83.8333C143.271 83.8698 143.308 83.8906 143.349 83.8906C143.438 83.8906 143.563 83.8177 143.724 83.6771C143.792 83.6198 143.948 83.4219 144.193 83.0781L144.422 83.1927C144.115 83.7604 143.787 84.1719 143.438 84.4323C143.089 84.6927 142.709 84.8229 142.308 84.8229C142.058 84.8229 141.87 84.7604 141.74 84.6302C141.61 84.5052 141.542 84.3438 141.542 84.1458C141.542 83.974 141.615 83.6615 141.756 83.1979L141.912 82.6667C141.407 83.5313 140.922 84.1458 140.459 84.5104C140.188 84.7188 139.901 84.8229 139.594 84.8229C139.193 84.8229 138.907 84.6563 138.729 84.3281C138.552 84 138.464 83.6302 138.464 83.2135C138.464 82.599 138.646 81.8958 139.021 81.099C139.396 80.3021 139.886 79.6615 140.495 79.1771C140.995 78.776 141.469 78.5781 141.907 78.5781C142.146 78.5781 142.344 78.6458 142.49 78.7865C142.641 78.9271 142.75 79.1875 142.818 79.5625L143.052 78.7604L144.599 78.6667L144.594 78.6719ZM142.511 79.9115C142.511 79.5625 142.453 79.3073 142.344 79.1458C142.266 79.0365 142.162 78.9844 142.026 78.9844C141.891 78.9844 141.75 79.0521 141.61 79.1771C141.313 79.4479 141 79.9948 140.667 80.8229C140.328 81.651 140.157 82.3646 140.157 82.9635C140.157 83.1979 140.198 83.3646 140.271 83.4635C140.349 83.5677 140.433 83.6198 140.526 83.6198C140.719 83.6198 140.917 83.5052 141.12 83.2812C141.407 82.9583 141.667 82.5625 141.891 82.099C142.302 81.276 142.506 80.5521 142.506 79.9115H142.511Z" fill="black"/>
<path d="M149.104 75.5729L146.943 82.9375C146.818 83.3698 146.755 83.6458 146.755 83.7552C146.755 83.8125 146.771 83.8594 146.813 83.8958C146.849 83.9375 146.885 83.9531 146.932 83.9531C147.005 83.9531 147.083 83.9219 147.151 83.8646C147.365 83.6927 147.594 83.4063 147.854 83L148.104 83.1146C147.693 83.7812 147.286 84.2552 146.885 84.5365C146.615 84.7292 146.323 84.8229 146.016 84.8229C145.729 84.8229 145.5 84.7448 145.328 84.5885C145.161 84.4323 145.078 84.25 145.078 84.0312C145.078 83.8698 145.125 83.6094 145.234 83.25L146.995 77.2188C147.089 76.8906 147.135 76.6719 147.135 76.5625C147.135 76.4531 147.089 76.375 147 76.3125C146.875 76.224 146.693 76.1875 146.443 76.1979L146.516 75.9479L148.714 75.5625H149.104V75.5729Z" fill="black"/>
<path d="M155.714 79.7501C155.682 79.5157 155.661 79.3022 155.641 79.1147C155.625 78.922 155.615 78.7553 155.615 78.6147C155.615 77.7397 155.885 77.0157 156.427 76.4376C156.964 75.8595 157.604 75.573 158.339 75.573C158.807 75.573 159.187 75.7032 159.469 75.9688C159.75 76.2345 159.896 76.5574 159.896 76.9272C159.896 77.3959 159.755 77.7917 159.479 78.1303C159.068 78.6355 158.406 79.0834 157.495 79.4688C157.786 80.4063 157.984 81.0105 158.094 81.2865C158.203 81.5626 158.349 81.8595 158.531 82.1824C158.781 81.9063 158.958 81.6407 159.068 81.3803C159.177 81.1199 159.229 80.9115 159.229 80.7449C159.229 80.6042 159.193 80.4845 159.109 80.3751C159.026 80.2709 158.891 80.1928 158.703 80.1459L158.781 79.9115H161.286L161.188 80.1459C160.953 80.2032 160.755 80.297 160.599 80.4324C160.438 80.5678 160.141 80.9272 159.703 81.5105C159.396 81.9324 159.089 82.297 158.786 82.6199C159.135 83.1042 159.448 83.4376 159.74 83.6199C159.922 83.7449 160.13 83.8022 160.365 83.8022C160.5 83.8022 160.615 83.7813 160.719 83.7345C160.818 83.6928 160.938 83.6095 161.083 83.4897H161.292C161.083 83.9324 160.807 84.2761 160.464 84.5001C160.12 84.7292 159.734 84.8386 159.297 84.8386C158.932 84.8386 158.604 84.7657 158.312 84.6199C158.021 84.474 157.714 84.2292 157.385 83.8751C156.937 84.198 156.484 84.4324 156.031 84.599C155.578 84.7605 155.12 84.8386 154.656 84.8386C153.99 84.8386 153.453 84.6511 153.062 84.2761C152.667 83.9011 152.469 83.4636 152.469 82.9584C152.469 82.5522 152.552 82.198 152.724 81.8803C152.891 81.5678 153.214 81.2345 153.688 80.8751C154.161 80.5157 154.839 80.1407 155.724 79.7449L155.714 79.7501ZM155.812 80.2397C155.312 80.5157 154.953 80.8022 154.74 81.0938C154.521 81.3907 154.417 81.7397 154.417 82.1511C154.417 82.6511 154.568 83.073 154.88 83.4167C155.193 83.7553 155.542 83.9272 155.922 83.9272C156.083 83.9272 156.271 83.8907 156.469 83.8178C156.667 83.7449 156.885 83.6355 157.12 83.4897C156.854 83.0886 156.599 82.5834 156.354 81.974C156.104 81.3595 155.927 80.7813 155.807 80.2397H155.812ZM157.375 78.9792C157.74 78.7188 158 78.4532 158.167 78.1876C158.396 77.8178 158.51 77.4167 158.51 77.0053C158.51 76.6928 158.448 76.448 158.318 76.2761C158.214 76.1511 158.078 76.0886 157.922 76.0886C157.724 76.0886 157.573 76.1667 157.458 76.323C157.292 76.5574 157.208 76.922 157.208 77.4167C157.208 77.6355 157.224 77.8803 157.25 78.1407C157.281 78.4011 157.323 78.6772 157.375 78.9792Z" fill="black"/>
<path d="M169.407 80.3126L168.625 83.0001C168.511 83.3803 168.459 83.6563 168.459 83.8386C168.459 84.0053 168.526 84.1355 168.662 84.2345C168.797 84.3386 169.078 84.3907 169.506 84.4011L169.412 84.6407H165.151L165.229 84.4011C165.657 84.4011 165.969 84.3178 166.167 84.1511C166.365 83.9845 166.547 83.6147 166.709 83.0417L168.354 77.349C168.443 77.0313 168.49 76.7813 168.49 76.599C168.49 76.4167 168.433 76.2917 168.323 76.198C168.209 76.1095 167.948 76.047 167.532 76.0157L167.599 75.7761H171.266C172.313 75.7761 173.047 75.9584 173.474 76.323C173.901 76.6928 174.11 77.1615 174.11 77.7345C174.11 78.3386 173.86 78.8907 173.365 79.3751C173.058 79.6824 172.5 79.9428 171.703 80.1667L172.5 82.8542C172.714 83.5782 172.896 84.0105 173.058 84.1563C173.214 84.3074 173.479 84.3855 173.849 84.3959V84.6355H171.099L169.849 80.3074L169.631 80.323C169.584 80.323 169.511 80.323 169.412 80.3074L169.407 80.3126ZM169.495 79.9167C169.651 79.9272 169.776 79.9324 169.881 79.9324C170.516 79.9324 171.037 79.7136 171.448 79.2813C171.854 78.8438 172.058 78.2709 172.058 77.5678C172.058 77.1459 171.948 76.8282 171.735 76.6095C171.516 76.3907 171.229 76.2813 170.87 76.2813C170.787 76.2813 170.683 76.2813 170.563 76.2865L169.495 79.9167Z" fill="black"/>
<path d="M176.568 82.1875C176.526 82.474 176.511 82.7083 176.511 82.8906C176.511 83.2188 176.604 83.4792 176.792 83.6719C176.979 83.8698 177.235 83.9688 177.552 83.9688C177.865 83.9688 178.162 83.8958 178.469 83.7448C178.771 83.5938 179.131 83.3385 179.537 82.9688L179.729 83.1406C179.229 83.75 178.74 84.1823 178.271 84.4375C177.797 84.6979 177.271 84.8229 176.698 84.8229C175.969 84.8229 175.469 84.6458 175.193 84.2969C174.917 83.9531 174.776 83.5469 174.776 83.0885C174.776 82.375 174.985 81.6562 175.401 80.9427C175.813 80.2292 176.381 79.6563 177.094 79.224C177.808 78.7917 178.526 78.5781 179.25 78.5781C179.615 78.5781 179.891 78.6615 180.073 78.8385C180.261 79.0104 180.354 79.2344 180.354 79.4948C180.354 79.8177 180.266 80.125 180.084 80.4271C179.828 80.8385 179.511 81.1667 179.131 81.4167C178.745 81.6667 178.318 81.8594 177.844 81.9896C177.526 82.0729 177.099 82.1406 176.563 82.1823L176.568 82.1875ZM176.625 81.849C177.011 81.7917 177.308 81.7135 177.516 81.6198C177.729 81.5208 177.933 81.3646 178.136 81.1458C178.334 80.9323 178.511 80.6615 178.657 80.3281C178.808 80 178.881 79.6927 178.881 79.4062C178.881 79.2812 178.844 79.1875 178.782 79.1198C178.714 79.0521 178.625 79.0156 178.521 79.0156C178.313 79.0156 178.078 79.1615 177.818 79.4531C177.339 79.9844 176.943 80.7865 176.625 81.8542V81.849Z" fill="black"/>
<path d="M185.38 78.5781L185.094 80.599H184.854C184.818 80.0781 184.656 79.6615 184.375 79.3646C184.089 79.0625 183.787 78.9115 183.458 78.9115C183.261 78.9115 183.094 78.9688 182.964 79.0885C182.833 79.2031 182.771 79.3438 182.771 79.5104C182.771 79.651 182.797 79.7812 182.854 79.9062C182.912 80.026 183.037 80.1927 183.235 80.401C183.917 81.1406 184.339 81.651 184.485 81.9323C184.63 82.2083 184.708 82.5104 184.708 82.8281C184.708 83.1719 184.62 83.5 184.448 83.8073C184.271 84.1146 184.011 84.3594 183.667 84.5417C183.323 84.7292 182.964 84.8229 182.589 84.8229C182.339 84.8229 182.026 84.7708 181.656 84.6719C181.412 84.6042 181.229 84.5677 181.11 84.5677C181 84.5677 180.912 84.5885 180.854 84.6198C180.792 84.651 180.724 84.7188 180.651 84.8229H180.412L180.729 82.6458H180.938C181.094 83.1719 181.235 83.5521 181.365 83.776C181.5 84 181.677 84.1771 181.901 84.3125C182.12 84.4427 182.333 84.5104 182.537 84.5104C182.776 84.5104 182.974 84.4323 183.13 84.2812C183.281 84.1302 183.365 83.9531 183.365 83.7448C183.365 83.5313 183.313 83.3385 183.208 83.1458C183.104 82.9583 182.87 82.6563 182.5 82.2552C181.995 81.6979 181.656 81.2708 181.5 80.9688C181.386 80.75 181.328 80.5 181.328 80.224C181.328 79.7552 181.5 79.3594 181.844 79.0469C182.182 78.7344 182.662 78.5781 183.276 78.5781C183.547 78.5781 183.88 78.625 184.271 78.7188C184.464 78.7708 184.62 78.7917 184.74 78.7917C184.906 78.7917 185.042 78.7188 185.151 78.5781H185.386H185.38Z" fill="black"/>
<path d="M189.011 78.5782L187.672 83.2292C187.599 83.4949 187.563 83.6667 187.563 83.7501C187.563 83.8022 187.584 83.8438 187.62 83.8855C187.662 83.9272 187.698 83.948 187.745 83.948C187.818 83.948 187.891 83.9167 187.964 83.849C188.157 83.6928 188.391 83.3959 188.667 82.974L188.891 83.1095C188.235 84.2553 187.537 84.8282 186.797 84.8282C186.516 84.8282 186.292 84.7449 186.125 84.5886C185.959 84.4324 185.87 84.2292 185.87 83.9845C185.87 83.823 185.907 83.6147 185.985 83.3699L186.891 80.2449C186.974 79.9428 187.021 79.7136 187.021 79.5626C187.021 79.4688 186.979 79.3803 186.901 79.3074C186.818 79.2345 186.703 79.198 186.563 79.198C186.495 79.198 186.417 79.198 186.328 79.2032L186.412 78.9428L188.62 78.5834H189.016L189.011 78.5782ZM188.61 75.573C188.875 75.573 189.104 75.6667 189.287 75.8542C189.474 76.0365 189.568 76.2657 189.568 76.5313C189.568 76.797 189.474 77.0261 189.287 77.2136C189.099 77.4011 188.875 77.4949 188.61 77.4949C188.339 77.4949 188.125 77.4011 187.933 77.2136C187.75 77.0261 187.657 76.797 187.657 76.5313C187.657 76.2657 187.745 76.0365 187.933 75.8542C188.12 75.6667 188.339 75.573 188.61 75.573Z" fill="black"/>
<path d="M196.599 75.573L194.479 82.8907C194.344 83.349 194.276 83.625 194.276 83.7188C194.276 83.7709 194.292 83.8073 194.328 83.8438C194.365 83.875 194.401 83.8959 194.438 83.8959C194.516 83.8959 194.599 83.8594 194.693 83.7813C194.854 83.6615 195.052 83.4271 195.281 83.0886L195.516 83.2136C194.901 84.2865 194.229 84.823 193.495 84.823C193.235 84.823 193.037 84.7552 192.891 84.6146C192.75 84.4792 192.682 84.3021 192.682 84.0886C192.682 83.875 192.74 83.5938 192.849 83.2136L193.042 82.5469C192.5 83.5105 192.026 84.1511 191.63 84.474C191.328 84.7084 191.026 84.823 190.745 84.823C190.417 84.823 190.141 84.6927 189.917 84.4271C189.693 84.1563 189.583 83.7709 189.583 83.2605C189.583 82.6094 189.724 81.9688 190.011 81.3386C190.297 80.7032 190.63 80.1771 191.005 79.7552C191.38 79.3334 191.74 79.0313 192.083 78.849C192.422 78.6667 192.761 78.5782 193.089 78.5782C193.261 78.5782 193.412 78.6094 193.542 78.6771C193.672 78.75 193.823 78.8802 193.995 79.073L194.479 77.4427C194.594 77.0417 194.656 76.7552 194.656 76.5834C194.656 76.4792 194.615 76.3855 194.537 76.3125C194.458 76.2396 194.354 76.2032 194.224 76.2032C194.167 76.2032 194.089 76.2084 193.995 76.224L194.063 75.9688L196.208 75.5677H196.599V75.573ZM193.735 79.7188C193.735 79.4532 193.682 79.2605 193.578 79.1355C193.474 79.0157 193.349 78.9532 193.208 78.9532C193.068 78.9532 192.922 79.0261 192.761 79.1667C192.453 79.448 192.125 80.0105 191.792 80.8542C191.453 81.698 191.287 82.4063 191.287 82.9844C191.287 83.1927 191.323 83.349 191.396 83.448C191.474 83.5469 191.557 83.5938 191.646 83.5938C191.797 83.5938 191.948 83.5261 192.104 83.3855C192.469 83.0573 192.833 82.4844 193.193 81.6771C193.552 80.8646 193.735 80.2136 193.735 79.7188Z" fill="black"/>
<path d="M198.078 82.1875C198.042 82.474 198.021 82.7083 198.021 82.8906C198.021 83.2188 198.12 83.4792 198.307 83.6719C198.495 83.8698 198.75 83.9688 199.063 83.9688C199.38 83.9688 199.677 83.8958 199.979 83.7448C200.287 83.5938 200.641 83.3385 201.047 82.9688L201.245 83.1406C200.74 83.75 200.255 84.1823 199.781 84.4375C199.307 84.6979 198.787 84.8229 198.214 84.8229C197.485 84.8229 196.985 84.6458 196.708 84.2969C196.427 83.9531 196.287 83.5469 196.287 83.0885C196.287 82.375 196.5 81.6562 196.912 80.9427C197.328 80.2292 197.896 79.6563 198.61 79.224C199.323 78.7917 200.042 78.5781 200.761 78.5781C201.13 78.5781 201.401 78.6615 201.589 78.8385C201.776 79.0104 201.87 79.2344 201.87 79.4948C201.87 79.8177 201.776 80.125 201.594 80.4271C201.344 80.8385 201.026 81.1667 200.641 81.4167C200.261 81.6667 199.833 81.8594 199.36 81.9896C199.042 82.0729 198.615 82.1406 198.078 82.1823V82.1875ZM198.141 81.849C198.526 81.7917 198.818 81.7135 199.031 81.6198C199.245 81.5208 199.448 81.3646 199.651 81.1458C199.849 80.9323 200.026 80.6615 200.172 80.3281C200.323 80 200.391 79.6927 200.391 79.4062C200.391 79.2812 200.36 79.1875 200.292 79.1198C200.229 79.0521 200.141 79.0156 200.037 79.0156C199.828 79.0156 199.594 79.1615 199.333 79.4531C198.854 79.9844 198.453 80.7865 198.136 81.8542L198.141 81.849Z" fill="black"/>
<path d="M205.516 78.5782L204.709 81.3855C205.25 80.5626 205.657 80.0001 205.927 79.7032C206.318 79.2657 206.662 78.9688 206.948 78.8126C207.24 78.6511 207.506 78.5782 207.761 78.5782C207.985 78.5782 208.183 78.6615 208.339 78.8282C208.5 78.9949 208.584 79.2136 208.584 79.4845C208.584 79.7292 208.532 80.0261 208.422 80.3751L207.589 83.1667C207.521 83.4115 207.485 83.573 207.485 83.6459C207.485 83.6876 207.5 83.7292 207.532 83.7605C207.568 83.797 207.599 83.8126 207.636 83.8126C207.677 83.8126 207.724 83.797 207.771 83.7605C207.922 83.6355 208.078 83.4584 208.235 83.224C208.276 83.1667 208.339 83.073 208.422 82.948L208.672 83.099C208.037 84.1772 207.365 84.7136 206.657 84.7136C206.391 84.7136 206.177 84.6459 206.026 84.5053C205.875 84.3647 205.797 84.1928 205.797 83.9845C205.797 83.8022 205.849 83.5261 205.953 83.1667L206.771 80.3751C206.828 80.1876 206.854 80.0522 206.854 79.9688C206.854 79.9167 206.834 79.8751 206.797 79.8438C206.761 79.8074 206.714 79.7865 206.662 79.7865C206.495 79.7865 206.297 79.9011 206.058 80.1251C205.459 80.7032 204.881 81.5574 204.318 82.6928L203.787 84.6355H202.12L203.339 80.4376C203.459 80.0261 203.516 79.7292 203.516 79.5574C203.516 79.4792 203.5 79.422 203.464 79.3699C203.427 79.3178 203.37 79.2813 203.297 79.2501C203.219 79.224 203.068 79.2084 202.849 79.2084L202.922 78.9584L205.12 78.573H205.521L205.516 78.5782Z" fill="black"/>
<path d="M213.209 76.9845L212.688 78.7605H213.537L213.308 79.5157H212.469L211.375 83.3074C211.308 83.547 211.276 83.724 211.276 83.8438C211.276 83.9011 211.297 83.9532 211.334 83.9949C211.37 84.0313 211.417 84.0574 211.464 84.0574C211.537 84.0574 211.615 84.0261 211.693 83.9636C211.891 83.8126 212.125 83.547 212.391 83.1667L212.62 83.3074C212.318 83.8334 211.99 84.2136 211.631 84.4584C211.271 84.7032 210.912 84.8282 210.568 84.8282C210.271 84.8282 210.042 84.7553 209.881 84.599C209.719 84.4532 209.636 84.2605 209.636 84.0313C209.636 83.7761 209.693 83.4532 209.808 83.0522L210.839 79.5157H209.948L210.084 79.0313C210.636 78.8282 211.104 78.5834 211.49 78.3074C211.875 78.0313 212.334 77.5938 212.87 76.9792H213.209V76.9845Z" fill="black"/>
<path d="M216.49 78.5782L215.157 83.2292C215.084 83.4949 215.042 83.6667 215.042 83.7501C215.042 83.8022 215.063 83.8438 215.099 83.8855C215.141 83.9272 215.183 83.948 215.224 83.948C215.297 83.948 215.375 83.9167 215.443 83.849C215.641 83.6928 215.875 83.3959 216.151 82.974L216.37 83.1095C215.719 84.2553 215.016 84.8282 214.282 84.8282C213.995 84.8282 213.771 84.7449 213.604 84.5886C213.438 84.4324 213.354 84.2292 213.354 83.9845C213.354 83.823 213.391 83.6147 213.464 83.3699L214.37 80.2449C214.459 79.9428 214.506 79.7136 214.506 79.5626C214.506 79.4688 214.464 79.3803 214.381 79.3074C214.297 79.2345 214.188 79.198 214.042 79.198C213.974 79.198 213.901 79.198 213.808 79.2032L213.891 78.9428L216.104 78.5834H216.495L216.49 78.5782ZM216.089 75.573C216.36 75.573 216.589 75.6667 216.771 75.8542C216.953 76.0365 217.047 76.2657 217.047 76.5313C217.047 76.797 216.953 77.0261 216.766 77.2136C216.578 77.4011 216.354 77.4949 216.089 77.4949C215.823 77.4949 215.604 77.4011 215.417 77.2136C215.229 77.0261 215.136 76.797 215.136 76.5313C215.136 76.2657 215.229 76.0365 215.412 75.8542C215.599 75.6667 215.823 75.573 216.089 75.573Z" fill="black"/>
<path d="M223.193 78.6719L221.932 83.0208L221.797 83.5521C221.781 83.6146 221.776 83.6667 221.776 83.6927C221.776 83.7448 221.797 83.7917 221.833 83.8333C221.87 83.8698 221.906 83.8906 221.948 83.8906C222.036 83.8906 222.167 83.8177 222.323 83.6771C222.391 83.6198 222.547 83.4219 222.792 83.0781L223.021 83.1927C222.714 83.7604 222.385 84.1719 222.036 84.4323C221.688 84.6927 221.307 84.8229 220.906 84.8229C220.656 84.8229 220.469 84.7604 220.339 84.6302C220.208 84.5052 220.146 84.3438 220.146 84.1458C220.146 83.974 220.214 83.6615 220.354 83.1979L220.51 82.6667C220.005 83.5313 219.521 84.1458 219.057 84.5104C218.786 84.7188 218.5 84.8229 218.193 84.8229C217.792 84.8229 217.505 84.6563 217.328 84.3281C217.151 84 217.062 83.6302 217.062 83.2135C217.062 82.599 217.25 81.8958 217.625 81.099C217.995 80.3021 218.484 79.6615 219.099 79.1771C219.599 78.776 220.068 78.5781 220.505 78.5781C220.75 78.5781 220.943 78.6458 221.094 78.7865C221.24 78.9271 221.349 79.1875 221.417 79.5625L221.651 78.7604L223.198 78.6667L223.193 78.6719ZM221.109 79.9115C221.109 79.5625 221.052 79.3073 220.943 79.1458C220.87 79.0365 220.76 78.9844 220.625 78.9844C220.49 78.9844 220.349 79.0521 220.208 79.1771C219.917 79.4479 219.599 79.9948 219.266 80.8229C218.927 81.651 218.76 82.3646 218.76 82.9635C218.76 83.1979 218.797 83.3646 218.875 83.4635C218.948 83.5677 219.031 83.6198 219.125 83.6198C219.318 83.6198 219.516 83.5052 219.719 83.2812C220.005 82.9583 220.266 82.5625 220.495 82.099C220.901 81.276 221.104 80.5521 221.104 79.9115H221.109Z" fill="black"/>
<path d="M227.703 75.5729L225.547 82.9375C225.417 83.3698 225.354 83.6458 225.354 83.7552C225.354 83.8125 225.375 83.8594 225.411 83.8958C225.448 83.9375 225.49 83.9531 225.531 83.9531C225.609 83.9531 225.682 83.9219 225.75 83.8646C225.958 83.6927 226.193 83.4063 226.448 83L226.703 83.1146C226.292 83.7812 225.885 84.2552 225.484 84.5365C225.208 84.7292 224.922 84.8229 224.609 84.8229C224.323 84.8229 224.099 84.7448 223.927 84.5885C223.76 84.4323 223.672 84.25 223.672 84.0312C223.672 83.8698 223.724 83.6094 223.828 83.25L225.589 77.2188C225.682 76.8906 225.734 76.6719 225.734 76.5625C225.734 76.4531 225.687 76.375 225.594 76.3125C225.474 76.224 225.292 76.1875 225.042 76.1979L225.115 75.9479L227.312 75.5625H227.703V75.5729Z" fill="black"/>
<path d="M59.4535 58.7241C57.2555 57.6511 54.2712 58.2084 52.2503 59.4168L47.4795 56.9897C48.7712 55.6563 49.3701 56.1511 50.667 55.1824C51.9014 54.2605 53.8181 52.323 54.7139 51.0782C55.4014 50.1199 55.2503 49.0991 56.7347 48.3699L64.7295 46.1147C64.2087 45.4741 63.391 45.698 62.7191 45.8126C61.0733 46.0939 59.141 47.1772 57.5368 47.7814C57.1358 47.9324 56.9014 48.3543 56.5056 47.8178C56.6149 47.6303 56.4951 47.1355 56.7295 46.7605C57.6826 45.2084 59.1514 44.1564 57.4378 42.2397C57.7243 43.1199 55.7191 45.7084 55.391 45.4168L52.4587 42.8595C51.8962 42.3751 54.2087 40.0886 55.2191 40.297C52.8285 38.5626 52.1253 40.7241 50.7139 41.797C50.6462 41.8439 48.9639 41.9689 49.4326 41.6407C49.8389 40.2397 51.5628 34.9064 50.6931 33.8491C50.2816 33.3491 50.0368 33.8959 49.9587 34.2814C49.5733 36.2241 49.8597 39.4064 49.2347 41.4636C48.667 43.3022 47.8441 43.0626 47.391 43.5886L43.8806 47.6303C43.6253 47.922 42.9274 49.6772 42.7764 50.1824C42.2764 51.8491 43.4066 51.9116 41.443 52.0782C41.5212 50.4897 39.3233 48.9376 38.9743 47.823C38.9014 47.5939 39.5733 45.3959 39.6201 44.6876C39.7451 42.9064 39.1826 40.7293 37.7139 39.5939L38.7191 42.0886C39.292 44.2553 38.4847 45.0939 38.193 46.8803C37.9066 48.6095 40.1097 50.7605 40.8858 52.3074C41.667 53.8595 41.2087 53.3959 40.641 54.2241C38.2295 52.2709 36.4326 51.1928 33.3024 51.0157C32.4483 50.9689 31.2243 51.4168 30.6722 51.3647C30.0889 51.3074 26.5316 49.5991 26.3858 49.7761C26.3128 50.1251 26.9378 50.3647 27.1983 50.5001C28.0837 50.9584 30.6514 52.1355 31.5055 52.3647C32.641 52.6668 34.5212 51.9584 35.4847 52.297C36.417 52.6303 38.1462 53.6355 39.2347 54.1303C39.5316 54.2709 39.8701 54.3178 40.0316 54.5991C40.0576 54.6668 40.0837 54.7449 40.1201 54.8334C40.0368 54.9272 40.1462 55.4168 39.7087 55.5313C37.9326 56.0001 34.4378 53.2189 33.1201 53.698C31.6305 54.2345 32.0576 57.2501 31.0264 58.3855L27.068 58.0001C27.6305 58.6355 31.0733 59.1876 31.5941 58.8647C32.8597 58.0678 32.542 55.2501 32.8285 55.047C33.8753 55.3543 37.0837 55.3907 37.6201 56.2293C38.2087 57.1407 36.3649 57.2189 35.8493 57.4949C32.0003 59.5522 29.9951 63.2553 32.0837 67.3595L33.9066 68.948C38.3962 70.198 42.0524 67.7813 43.167 63.2761C43.2764 62.823 43.1097 62.2136 43.2139 61.9324C43.3753 61.5053 43.7712 61.8543 44.0212 61.7918C45.068 63.0574 45.4014 64.9636 45.9639 66.5053C44.6358 66.698 42.8181 67.1355 42.1566 68.4376C42.0576 68.6303 43.0733 72.2032 43.6358 72.4636C43.9587 71.7866 42.7556 69.0574 42.9222 68.7605C43.5785 67.5886 45.8389 67.5366 46.5837 66.9636C48.2868 65.6616 45.3233 62.5834 44.7503 61.3595C44.667 61.1772 44.3285 59.7032 44.3441 59.5886C44.3753 59.3126 44.7191 59.3386 44.792 59.2657C46.1462 59.5886 46.6983 61.3022 47.3701 62.4168C47.6201 62.8334 48.0993 63.1095 48.3233 63.4949C48.7503 64.2136 48.3805 66.3907 48.8024 67.4532C49.3545 68.8647 50.9535 70.7293 51.766 72.0991C51.9743 70.8699 49.8285 68.9428 49.6774 68.0574C49.641 67.8386 50.0056 66.8438 49.9222 66.0418C49.5889 62.9324 47.9691 60.6876 45.6931 58.6303C45.8076 58.4584 45.6618 57.9324 45.7712 57.8022C45.9118 57.6407 46.3441 57.8543 46.3962 57.823C48.2816 57.9584 50.5993 60.0261 52.3441 60.1251C53.5055 60.1928 55.0003 58.8126 56.6097 58.7293C57.8181 58.6668 59.3181 59.1511 60.3753 59.7188C60.7399 59.3178 59.7087 58.8438 59.4535 58.7188V58.7241Z" fill="#131313"/>
<path d="M64.667 49.9635L242.162 49.5L242.172 53.0312L64.6774 53.5L64.667 49.9635Z" fill="black"/>
<path d="M43.6826 30.9427L43.7347 6.6875L47.2555 6.69271L47.2087 30.9479L43.6826 30.9427Z" fill="black"/>
<mask id="mask1_120_4" style="mask-type:luminance" maskUnits="userSpaceOnUse" x="0" y="49" width="24" height="7">
<path d="M0 49.0365H23.3542V55.7032H0V49.0365Z" fill="white"/>
</mask>
<g mask="url(#mask1_120_4)">
<path d="M0.125 50.8699L22.2969 49.8386L22.4583 53.3699L0.286458 54.4011L0.125 50.8699Z" fill="black"/>
</g>
<mask id="mask2_120_4" style="mask-type:luminance" maskUnits="userSpaceOnUse" x="42" y="73" width="6" height="23">
<path d="M42.021 73.0365H47.3543V96H42.021V73.0365Z" fill="white"/>
</mask>
<g mask="url(#mask2_120_4)">
<path d="M43.1514 73.9532L46.6774 73.8959L47.0472 95.9375L43.5264 95.9948L43.1514 73.9532Z" fill="black"/>
</g>
<path d="M80.6982 20.9688C80.6982 21.6824 80.568 22.3542 80.3024 22.974C80.0368 23.599 79.6722 24.1407 79.2139 24.599C78.7503 25.0574 78.2087 25.4167 77.5785 25.6876C76.9535 25.9532 76.2816 26.0834 75.5732 26.0834C74.8597 26.0834 74.1514 25.9532 73.5264 25.698C72.9066 25.4376 72.3701 25.0834 71.9222 24.6355C71.4743 24.1876 71.1253 23.6511 70.8701 23.0313C70.6201 22.4115 70.4951 21.7345 70.4951 20.9897C70.4951 20.2501 70.6253 19.6095 70.891 18.9897C71.1566 18.3699 71.5212 17.8282 71.9847 17.3751C72.443 16.9115 72.9847 16.5522 73.6097 16.2917C74.2295 16.0313 74.9014 15.9011 75.6253 15.9011C76.3493 15.9011 77.0472 16.0261 77.667 16.2813C78.292 16.5313 78.8232 16.8855 79.2764 17.3334C79.7243 17.7813 80.0732 18.3178 80.3232 18.9376C80.5785 19.5574 80.7035 20.2292 80.7035 20.9688H80.6982ZM79.5264 21.047C79.5264 20.4272 79.4274 19.8647 79.2295 19.3595C79.0368 18.8542 78.7607 18.4167 78.4118 18.0574C78.0628 17.6928 77.6514 17.4167 77.1722 17.224C76.6982 17.0313 76.1774 16.9376 75.6201 16.9376C75.0212 16.9376 74.4795 17.0417 73.9951 17.2501C73.5107 17.4584 73.0941 17.7449 72.7451 18.1147C72.3962 18.4792 72.1305 18.9063 71.943 19.3907C71.7607 19.8751 71.667 20.3907 71.667 20.9428C71.667 21.5522 71.7607 22.1095 71.9587 22.6147C72.1566 23.1199 72.4274 23.5574 72.7764 23.922C73.1253 24.2813 73.5368 24.5574 74.016 24.7605C74.4951 24.9532 75.0107 25.0522 75.568 25.0522C76.1722 25.0522 76.7139 24.948 77.1982 24.7345C77.6878 24.5209 78.0993 24.2292 78.4482 23.8699C78.792 23.5053 79.0576 23.0834 79.2451 22.599C79.4274 22.1147 79.5264 21.599 79.5264 21.047ZM77.9847 23.4428C77.9847 23.474 77.9795 23.5105 77.9639 23.5365C77.9482 23.5678 77.917 23.5886 77.8649 23.6042C77.8128 23.6199 77.7399 23.6251 77.6462 23.6355C77.5472 23.6459 77.417 23.6511 77.2503 23.6511C77.1045 23.6511 76.9847 23.6459 76.8962 23.6355C76.8024 23.6251 76.7295 23.6147 76.6722 23.5886C76.6149 23.5678 76.568 23.5365 76.5368 23.5001C76.5055 23.4584 76.4847 23.4011 76.4691 23.3334L76.193 22.4324C76.0889 22.1095 75.9639 21.8803 75.818 21.7553C75.6774 21.6303 75.4639 21.5678 75.1722 21.5678H74.8232V23.3959C74.8232 23.4897 74.7868 23.5574 74.7087 23.5938C74.6357 23.6251 74.4639 23.6459 74.193 23.6459C73.9274 23.6459 73.7451 23.6251 73.6618 23.5938C73.5732 23.5574 73.5264 23.4897 73.5264 23.3959V18.698C73.5264 18.5053 73.5785 18.3595 73.6722 18.2501C73.766 18.1407 73.9118 18.0834 74.0993 18.0834H75.5993C75.9482 18.0834 76.2555 18.1147 76.5212 18.1772C76.7868 18.2345 77.0107 18.3334 77.1982 18.4636C77.3857 18.5938 77.5264 18.7605 77.6201 18.9532C77.7139 19.1511 77.766 19.3855 77.766 19.6563C77.766 20.073 77.6514 20.3959 77.4222 20.6303C77.1982 20.8647 76.8962 21.0261 76.5107 21.1199C76.7191 21.1876 76.9118 21.3074 77.0993 21.474C77.2816 21.6407 77.4378 21.8855 77.568 22.2188L77.8805 23.0574C77.9378 23.2605 77.9691 23.3855 77.9691 23.4376L77.9847 23.4428ZM76.3649 19.8178C76.3649 19.7188 76.3545 19.6303 76.3285 19.5417C76.3024 19.4532 76.2503 19.3751 76.1774 19.3126C76.1045 19.2449 76.0055 19.1928 75.8857 19.1615C75.7607 19.1251 75.6097 19.1095 75.4274 19.1095H74.8232V20.5782H75.4014C75.766 20.5782 76.016 20.5053 76.1566 20.3647C76.292 20.224 76.3649 20.047 76.3649 19.8178Z" fill="black"/>
<path d="M224.985 23.9324L225.391 26.3282L226.563 24.9011L228.339 26.3282L227.881 23.9324H230.115L227.552 21.948L228.542 19.9636L226.511 20.9324L224.323 18.9949L224.631 20.9324L222.292 20.8803L223.969 22.3074L222.599 23.5782L224.985 23.9324Z" fill="#F9FDFF"/>
<path d="M252.313 34.099L252.552 35.5157L253.245 34.6772L254.292 35.5157L254.026 34.099H255.344L253.828 32.9272L254.412 31.7553L253.214 32.3282L251.922 31.1824L252.104 32.3282L250.724 32.297L251.714 33.1407L250.906 33.8907L252.313 34.099Z" fill="#F9FDFF"/>
<path d="M263.485 33.6354L263.729 35.0521L264.417 34.2083L265.469 35.0521L265.193 33.6354H266.516L265 32.4635L265.589 31.2917L264.386 31.8594L263.099 30.7188L263.276 31.8594L261.896 31.8281L262.886 32.6719L262.073 33.4271L263.485 33.6354Z" fill="#F9FDFF"/>
<path d="M265.521 42.5885L265.755 44.0052L266.448 43.1615L267.495 44.0052L267.229 42.5885H268.547L267.031 41.4167L267.615 40.2448L266.417 40.8125L265.125 39.6719L265.307 40.8125L263.927 40.7865L264.917 41.625L264.11 42.3802L265.521 42.5885Z" fill="#F9FDFF"/>
<path d="M251.089 46.6302L251.344 48.125L252.068 47.2344L253.177 48.125L252.896 46.6302H254.287L252.688 45.3907L253.302 44.1563L252.037 44.7605L250.677 43.5521L250.87 44.7605L249.412 44.724L250.453 45.6146L249.599 46.4063L251.089 46.6302Z" fill="#F9FDFF"/>
<path d="M259.599 42.6823L259.74 43.5052L260.141 43.0104L260.755 43.5052L260.594 42.6823H261.365L260.479 41.9948L260.823 41.3125L260.125 41.6458L259.375 40.9844L259.479 41.6458L258.677 41.6302L259.25 42.1198L258.781 42.5573L259.599 42.6823Z" fill="#F9FDFF"/>
<mask id="mask3_120_4" style="mask-type:luminance" maskUnits="userSpaceOnUse" x="215" y="0" width="18" height="8">
<path d="M215.354 0H232.688V7.70312H215.354V0Z" fill="white"/>
</mask>
<g mask="url(#mask3_120_4)">
<path d="M232.068 6.64583L231.537 6.10938L219.047 0H216.505L231.281 7.4375L232.068 6.64583Z" fill="#CD1D39"/>
</g>
<path d="M246.594 4.15112L245.5 3.05737C245.5 3.05737 239.813 3.81779 239.151 3.71883C238.495 3.61987 237.781 3.31258 237.781 3.31258L235.604 5.67196L234.536 4.68758L231.13 4.98966L233.891 7.52612L226.562 15.4792L232.068 20.422L239.219 12.4167L253.057 25.1251L254.745 23.3282L240.885 10.547L246.594 4.15112Z" fill="#CD1D39"/>
<path d="M243.609 10.5781L242.938 11.2552L258.5 18.9948L259.26 18.1771L243.609 10.5781Z" fill="#CD1D39"/>
<path d="M241.083 15.2761L249.297 29.3699L250.021 28.5678L243.573 17.573L241.083 15.2761Z" fill="#CD1D39"/>
<path d="M238.62 60.2969L239.594 59.4896H240.136L240.438 59.8907L239.865 60.5313L239.323 60.8073L238.62 60.2969Z" fill="#212B60"/>
<path d="M243.557 65.8647L243.318 65.1147L243.891 64.7761H244.604L244.974 65.1876L244.74 65.8647L244.146 66.2397L243.557 65.8647Z" fill="#212B60"/>
<path d="M239.797 61.6199L240.036 63.2865V63.9324L240.443 64.7813L241.219 65.2917L242.339 65.5105L242.844 65.7657V66.6147L241.542 67.974L240.443 68.3126L238.62 68.4792C238.62 68.4792 237.359 68.0053 236.854 67.5313C236.344 67.0574 236.344 65.8647 236.344 65.8647L236.682 64.4063L237.698 63.1824L238.62 62.2345L239.797 61.6199Z" fill="#212B60"/>
</svg>
